<svg xmlns="http://www.w3.org/2000/svg" width="16" height="14" viewBox="0 0 16 14">
    <g fill="#90959d">
        <path d="M7.914 4.058l-.001 3.463c0 .131.053.257.146.35l2.497 2.477.705-.7-2.35-2.332.001-3.258h-.998z"/>
        <path d="M8.96 0C5.455 0 2.555 2.614 2.07 6H0l2.489 2.5L4.977 6h-1.9c.476-2.833 2.928-5 5.882-5 3.294 0 5.973 2.691 5.973 6s-2.68 6-5.973 6c-1.851 0-3.568-.842-4.71-2.31l-.784.616C4.797 13.018 6.799 14 8.959 14c3.843 0 6.969-3.14 6.969-7s-3.126-7-6.969-7z"/>
    </g>
</svg>
