<svg xmlns="http://www.w3.org/2000/svg" width="27" height="24" fill="none" viewBox="0 0 27 24">
    <rect width="26.4" height="23.4" x=".3" y=".3" stroke="#E6EAEE" stroke-width=".6" rx="3.7"/>
    <path fill="#354052" d="M13.5 6.375c-3.352 0-6.356 2.2-7.475 5.473-.033.099-.033.205 0 .303 1.119 3.274 4.123 5.474 7.475 5.474 3.352 0 6.356-2.2 7.475-5.473.033-.099.033-.205 0-.303-1.119-3.275-4.123-5.474-7.475-5.474zm0 10.313c-2.9 0-5.506-1.878-6.534-4.688C7.994 9.19 10.6 7.312 13.5 7.312c2.9 0 5.506 1.878 6.534 4.688-1.028 2.81-3.634 4.688-6.534 4.688z"/>
    <path fill="#354052" d="M13.5 9.187c-1.552 0-2.813 1.262-2.813 2.813 0 1.55 1.261 2.813 2.812 2.813S16.312 13.55 16.312 12c0-1.551-1.262-2.813-2.813-2.813zm0 4.688c-1.035 0-1.876-.84-1.876-1.875 0-1.034.841-1.875 1.875-1.875s1.875.84 1.875 1.875c0 1.034-.84 1.875-1.875 1.875z"/>
</svg>
