<svg xmlns="http://www.w3.org/2000/svg" width="14" height="14" viewBox="0 0 14 14">
    <g fill="#90959d" fill-rule="evenodd">
        <path d="M7 0c3.866 0 7 3.134 7 7s-3.134 7-7 7-7-3.134-7-7 3.134-7 7-7zm0 .84C3.598.84.84 3.598.84 7S3.598 13.16 7 13.16s6.16-2.758 6.16-6.16S10.402.84 7 .84z"/>
        <path fill-rule="nonzero" d="M6.402 9.202l3.63-3.704c.076-.076.113-.167.113-.271 0-.105-.037-.195-.112-.272l-.069-.08c-.075-.077-.164-.115-.266-.115-.103 0-.191.038-.266.115L6.136 8.226 4.353 6.419c-.075-.077-.163-.115-.266-.115-.102 0-.191.038-.266.115l-.069.08c-.075.077-.112.167-.112.272 0 .104.037.195.112.271l2.117 2.16c.075.076.164.114.267.114.102 0 .19-.038.266-.114z"/>
    </g>
</svg>
