<svg width="124" height="62" viewBox="0 0 124 62" fill="none" xmlns="http://www.w3.org/2000/svg">
<path d="M52.3915 28.886C53.0728 29.7566 53.4134 30.8794 53.4134 32.242C53.4134 33.6677 53.0728 34.841 52.4041 35.7746C51.7228 36.7083 50.7892 37.1751 49.578 37.1751C48.821 37.1751 48.2028 37.0237 47.7486 36.7209C47.4711 36.5443 47.1683 36.2288 46.8529 35.7746V36.9228H44.481V24.5586H46.8781V28.9617C47.1809 28.5328 47.5215 28.2174 47.8874 27.9903C48.3164 27.7127 48.8715 27.5739 49.5402 27.5739C50.7514 27.5739 51.6976 28.0155 52.3915 28.886ZM50.3855 34.4625C50.7261 33.9579 50.9028 33.3144 50.9028 32.4944C50.9028 31.8509 50.8144 31.3084 50.6504 30.8794C50.3224 30.072 49.7294 29.6683 48.8715 29.6683C48.001 29.6683 47.3954 30.0594 47.0673 30.8542C46.9033 31.2706 46.815 31.8131 46.815 32.4817C46.815 33.264 46.9916 33.92 47.3449 34.4373C47.6982 34.9546 48.2281 35.2069 48.9472 35.2069C49.5528 35.2069 50.0448 34.9546 50.3855 34.4625Z" fill="black"/>
<path d="M58.0312 26.6908H55.5962V24.4829H58.0186V26.6908H58.0312ZM55.5962 27.7759H58.0186V36.9354H55.5962V27.7759Z" fill="black"/>
<path d="M65.3739 27.776C65.9543 28.0157 66.4211 28.4573 66.787 29.1007V27.776H69.121V36.4688C69.121 37.6547 68.9192 38.5379 68.528 39.1435C67.8468 40.178 66.5346 40.6953 64.5917 40.6953C63.4184 40.6953 62.4595 40.4682 61.7278 40.0014C60.9834 39.5472 60.5797 38.8533 60.504 37.9449H63.103C63.166 38.2225 63.2796 38.4243 63.431 38.5505C63.6833 38.765 64.1249 38.8785 64.7305 38.8785C65.5884 38.8785 66.1688 38.5883 66.4589 38.008C66.6482 37.6421 66.7491 37.0113 66.7491 36.1407V35.5478C66.522 35.9389 66.2697 36.2291 66.0047 36.4309C65.5253 36.7968 64.9071 36.9734 64.1501 36.9734C62.9768 36.9734 62.0306 36.5571 61.3366 35.737C60.6301 34.9169 60.2769 33.7941 60.2769 32.381C60.2769 31.0185 60.6175 29.8703 61.2862 28.9493C61.9675 28.0283 62.9263 27.5615 64.1627 27.5615C64.6295 27.5615 65.0333 27.6372 65.3739 27.776ZM66.194 34.3366C66.5851 33.9076 66.7744 33.239 66.7744 32.3179C66.7744 31.4474 66.5977 30.7914 66.2318 30.3372C65.866 29.883 65.3739 29.6559 64.7683 29.6559C63.9356 29.6559 63.3553 30.047 63.0399 30.8418C62.8759 31.2582 62.7875 31.7754 62.7875 32.3936C62.7875 32.9235 62.8759 33.403 63.0525 33.8193C63.3805 34.5889 63.9609 34.98 64.7936 34.98C65.3361 34.98 65.8029 34.7656 66.194 34.3366Z" fill="black"/>
<path d="M71.7074 27.9776H73.1836V29.1762C73.4864 28.7725 73.8144 28.4571 74.1803 28.23C74.6849 27.8893 75.2905 27.7253 75.9844 27.7253C77.0064 27.7253 77.8769 28.1164 78.5834 28.8986C79.3026 29.6809 79.6558 30.7911 79.6558 32.242C79.6558 34.1976 79.1386 35.598 78.1166 36.4433C77.4606 36.9732 76.7036 37.2382 75.833 37.2382C75.1517 37.2382 74.584 37.0868 74.1172 36.7966C73.8522 36.6326 73.5495 36.3424 73.2088 35.926V40.5311H71.6948V27.9776H71.7074ZM77.3975 35.0429C77.8643 34.4499 78.104 33.5668 78.104 32.3934C78.104 31.6743 78.0031 31.0561 77.7886 30.5388C77.3975 29.5421 76.6783 29.05 75.6312 29.05C74.584 29.05 73.8649 29.5799 73.4738 30.6271C73.2719 31.1822 73.1583 31.9014 73.1583 32.7593C73.1583 33.4532 73.2593 34.0462 73.4738 34.5382C73.8649 35.4718 74.584 35.9387 75.6312 35.9387C76.3377 35.926 76.9307 35.6232 77.3975 35.0429Z" fill="black"/>
<path d="M86.7211 31.4976C87.0744 31.4472 87.3015 31.3084 87.415 31.0561C87.4781 30.9173 87.516 30.728 87.516 30.4757C87.516 29.9584 87.3267 29.5799 86.9608 29.3528C86.595 29.1257 86.0651 28.9996 85.3838 28.9996C84.6016 28.9996 84.0338 29.2141 83.7058 29.643C83.5165 29.8827 83.403 30.236 83.3399 30.7028H81.9521C81.9773 29.5925 82.3432 28.8103 83.0245 28.3814C83.7184 27.9398 84.5132 27.7253 85.4342 27.7253C86.494 27.7253 87.3519 27.9272 88.008 28.3309C88.6641 28.7346 88.9921 29.3655 88.9921 30.2108V35.3961C88.9921 35.5475 89.0299 35.6737 89.093 35.7746C89.1561 35.8756 89.2949 35.9134 89.4968 35.9134C89.5598 35.9134 89.6355 35.9134 89.7239 35.9008C89.8122 35.8882 89.9005 35.8756 89.9888 35.863V36.9858C89.7491 37.0489 89.5725 37.0994 89.4463 37.112C89.3201 37.1246 89.1561 37.1372 88.9416 37.1372C88.4244 37.1372 88.0459 36.948 87.8061 36.5821C87.68 36.3802 87.5917 36.1027 87.5412 35.7494C87.2384 36.1531 86.7842 36.5064 86.2165 36.7966C85.6361 37.0994 85.0053 37.2382 84.3114 37.2382C83.4787 37.2382 82.7974 36.9858 82.2675 36.4812C81.7376 35.9765 81.4727 35.3457 81.4727 34.5761C81.4727 33.7434 81.7376 33.0999 82.2549 32.6331C82.7722 32.1789 83.4534 31.8888 84.3114 31.7878L86.7211 31.4976ZM83.5418 35.5854C83.8572 35.8377 84.2357 35.9639 84.6772 35.9639C85.2071 35.9639 85.7244 35.8377 86.2291 35.598C87.0744 35.1943 87.4907 34.5256 87.4907 33.592V32.3808C87.3015 32.4944 87.0744 32.5953 86.7842 32.671C86.494 32.7467 86.2038 32.8098 85.9263 32.835L85.0179 32.9485C84.4754 33.0242 84.059 33.1378 83.7815 33.2892C83.3147 33.5541 83.075 33.9705 83.075 34.5508C83.0623 34.9798 83.2137 35.3331 83.5418 35.5854Z" fill="black"/>
<path d="M91.9569 27.94H93.3952V29.2143C93.8242 28.6844 94.2658 28.3059 94.7452 28.0788C95.2246 27.8517 95.7545 27.7381 96.3349 27.7381C97.6092 27.7381 98.4797 28.1797 98.9213 29.0755C99.1736 29.5675 99.2871 30.2614 99.2871 31.1698V36.9482H97.7479V31.2707C97.7479 30.7156 97.6722 30.274 97.5082 29.946C97.2433 29.3909 96.7512 29.1007 96.0447 29.1007C95.6914 29.1007 95.3886 29.1386 95.1615 29.2143C94.7452 29.3404 94.3793 29.5801 94.0639 29.9586C93.8116 30.2614 93.6476 30.5642 93.5719 30.8796C93.4962 31.1951 93.4583 31.6492 93.4583 32.2422V36.9608H91.9443V27.94H91.9569Z" fill="black"/>
<path d="M106.97 28.2174C107.235 28.3814 107.538 28.6842 107.879 29.1005V24.5586H109.33V36.948H107.967V35.699C107.614 36.2541 107.197 36.6578 106.718 36.8975C106.239 37.1499 105.684 37.2634 105.065 37.2634C104.069 37.2634 103.198 36.8471 102.466 36.0018C101.735 35.1564 101.369 34.0336 101.369 32.6332C101.369 31.321 101.697 30.1855 102.365 29.2267C103.034 28.2678 103.98 27.7884 105.229 27.7884C105.936 27.7758 106.504 27.9272 106.97 28.2174ZM103.589 34.9672C103.993 35.6233 104.649 35.9387 105.545 35.9387C106.239 35.9387 106.819 35.6359 107.261 35.0303C107.715 34.4247 107.929 33.5668 107.929 32.4439C107.929 31.3084 107.702 30.4631 107.235 29.9206C106.769 29.3781 106.201 29.1005 105.519 29.1005C104.762 29.1005 104.144 29.3907 103.677 29.9711C103.211 30.5514 102.971 31.4093 102.971 32.5448C102.984 33.5037 103.185 34.3111 103.589 34.9672Z" fill="black"/>
<path d="M116.912 31.4976C117.266 31.4472 117.493 31.3084 117.606 31.0561C117.669 30.9173 117.707 30.728 117.707 30.4757C117.707 29.9584 117.518 29.5799 117.152 29.3528C116.786 29.1257 116.256 28.9996 115.575 28.9996C114.793 28.9996 114.225 29.2141 113.897 29.643C113.708 29.8827 113.594 30.236 113.531 30.7028H112.118C112.143 29.5925 112.509 28.8103 113.191 28.3814C113.884 27.9398 114.679 27.7253 115.6 27.7253C116.66 27.7253 117.518 27.9272 118.174 28.3309C118.83 28.7346 119.158 29.3655 119.158 30.2108V35.3961C119.158 35.5475 119.196 35.6737 119.259 35.7746C119.322 35.8756 119.461 35.9134 119.663 35.9134C119.726 35.9134 119.802 35.9134 119.89 35.9008C119.978 35.8882 120.067 35.8756 120.155 35.863V36.9858C119.915 37.0489 119.738 37.0994 119.612 37.112C119.486 37.1246 119.322 37.1372 119.108 37.1372C118.59 37.1372 118.212 36.948 117.972 36.5821C117.846 36.3802 117.758 36.1027 117.707 35.7494C117.404 36.1531 116.95 36.5064 116.382 36.7966C115.802 37.0994 115.171 37.2382 114.477 37.2382C113.645 37.2382 112.963 36.9858 112.434 36.4812C111.904 35.9765 111.639 35.3457 111.639 34.5761C111.639 33.7434 111.904 33.0999 112.421 32.6331C112.938 32.1789 113.619 31.8888 114.477 31.7878L116.912 31.4976ZM113.72 35.5854C114.036 35.8377 114.414 35.9639 114.856 35.9639C115.386 35.9639 115.903 35.8377 116.408 35.598C117.253 35.1943 117.669 34.5256 117.669 33.592V32.3808C117.48 32.4944 117.253 32.5953 116.963 32.671C116.673 32.7467 116.382 32.8098 116.105 32.835L115.197 32.9485C114.654 33.0242 114.238 33.1378 113.96 33.2892C113.493 33.5541 113.254 33.9705 113.254 34.5508C113.254 34.9798 113.405 35.3331 113.72 35.5854Z" fill="black"/>
<path d="M27.164 47.3012L35.7697 43.0624L37.1098 37.137C37.1249 37.1295 37.1399 37.122 37.155 37.1069C38.3672 36.354 38.9168 35.4656 39.5794 33.1467L39.6772 32.8003C40.2344 30.8578 40.3398 30.5341 40.7464 30.3158L40.8743 30.248L41.168 28.1399V28.1097C41.1755 27.8914 41.0776 27.643 40.8292 27.5677C40.8066 27.5601 39.5417 27.1536 36.899 26.9955L36.1537 24.3528L38.0284 22.6286C39.7299 20.8066 39.6321 17.9531 37.81 16.2515L37.4562 15.9203C35.6341 14.2187 32.7731 14.3166 31.0716 16.1386L29.4604 17.8703L22.5186 16.3946L15.1853 17.8552L13.5816 16.1386C11.8726 14.3091 9.01153 14.2112 7.18951 15.9127L6.83564 16.244C5.01362 17.9456 4.91574 20.7991 6.6173 22.6211L8.49203 24.3452L7.74665 27.018C5.33737 27.1912 4.20801 27.5677 4.18543 27.5677C3.93697 27.6354 3.83156 27.8914 3.84662 28.1097L4.14778 30.2405L4.27578 30.3082C4.68234 30.5266 4.78775 30.8578 5.3449 32.8003L5.44277 33.1391C6.0451 35.2473 6.55707 36.1733 7.55843 36.8961L9.25999 43.0624L17.8581 47.3012H27.164ZM31.8847 36.9413H31.832C29.7163 36.9413 28.3988 36.2034 27.9244 35.8797C27.1791 35.3753 26.253 34.261 25.9067 33.4403C25.5528 32.6121 25.3947 31.0611 25.598 30.4212C25.7937 29.8038 26.7424 29.4123 27.435 29.1713C28.843 28.682 31.2974 28.4636 31.3125 28.4636C32.0579 28.426 32.743 28.4034 33.3529 28.4034C33.9476 28.4034 34.4897 28.4184 34.9641 28.4561C35.6643 28.5088 36.2214 28.6067 36.6656 28.7347C37.3056 28.9304 37.5992 29.1864 37.795 29.4198C38.0284 29.6833 38.3672 30.4739 38.0434 32.838C37.9079 33.7942 37.6369 34.5471 37.2152 35.1419C36.9969 35.4505 36.7409 35.7065 36.4473 35.9173C36.1386 36.1357 35.7546 36.3239 35.3104 36.4745C34.437 36.7757 33.2851 36.9338 31.8847 36.9413ZM11.8575 20.6861L22.5111 18.3446L32.7882 20.6861L34.8436 26.9277C34.7307 26.9277 34.6177 26.9277 34.5048 26.9277C34.294 26.9277 34.0832 26.9352 33.8724 26.9352C32.359 26.9578 30.8457 27.0858 29.3324 27.2966C28.5719 27.402 27.8115 27.53 27.0586 27.6881C26.3659 27.8387 25.8163 27.9742 25.3269 28.0947C24.2427 28.3657 23.5275 28.5464 22.5261 28.5464C21.5172 28.5464 20.802 28.3657 19.7178 28.0947C19.2284 27.9742 18.6713 27.8312 17.9786 27.6806C17.1278 27.5074 16.2695 27.3644 15.4112 27.2514C13.8677 27.0482 12.3243 26.9352 10.7808 26.9277C10.698 26.9277 10.6152 26.9277 10.5249 26.9277C10.2839 26.9277 10.043 26.9277 9.80961 26.9352L11.8575 20.6861ZM11.6316 28.4034C12.2415 28.4034 12.9342 28.426 13.672 28.4561C13.6946 28.4561 16.149 28.6744 17.5645 29.1638C18.2572 29.4047 19.2058 29.7963 19.4016 30.4136C19.6049 31.0461 19.4468 32.597 19.0929 33.4328C18.7466 34.2534 17.828 35.3677 17.0826 35.8722C16.6158 36.1884 15.2907 36.9338 13.1751 36.9338H13.1224C11.5112 36.9262 10.2237 36.7154 9.2901 36.3239C9.004 36.2034 8.75554 36.0679 8.54473 35.9173C8.10052 35.6011 7.74665 35.1795 7.48314 34.6525C7.22715 34.148 7.05398 33.5532 6.95611 32.838C6.63236 30.4739 6.97116 29.6833 7.20456 29.4123C7.34762 29.2466 7.56596 29.0358 7.98005 28.8627C8.39415 28.682 8.94377 28.5615 9.66655 28.4862C10.2162 28.4335 10.8787 28.4034 11.6316 28.4034ZM18.2948 45.7502L10.4947 41.9104L9.45574 37.7243C10.4646 37.9803 11.722 38.1309 12.9944 38.1309C13.5741 38.1309 14.1313 38.1008 14.6658 38.033C17.7076 37.6716 19.2284 35.7668 19.507 35.3828C20.1093 34.5471 20.7944 33.0563 21.3817 31.7162C21.5925 31.2418 22.3981 31.2192 22.5111 31.2192H22.5939C22.8273 31.2343 23.4522 31.3096 23.6329 31.7162C24.2202 33.0638 24.9053 34.5546 25.5076 35.3828C25.7787 35.7592 27.2995 37.6716 30.3488 38.033C30.8758 38.0932 31.4405 38.1309 32.0202 38.1309C33.1345 38.1309 34.2337 38.0179 35.1673 37.8147L34.1434 41.9104L26.7198 45.7502H18.2948Z" fill="black"/>
<path d="M22.9175 41.2931C23.9264 41.2028 26.4034 40.8188 26.1851 39.313C26.1023 38.8311 25.7409 37.7695 22.5034 38.4622C19.2659 37.7695 18.897 38.8311 18.8217 39.313C18.6034 40.8188 21.0729 41.2028 22.0893 41.2931V42.686H18.8443L19.4165 43.7702H25.5978L26.17 42.686H22.925V41.2931H22.9175Z" fill="black"/>
</svg>
