<svg width="94" height="30" viewBox="0 0 94 30" fill="none" xmlns="http://www.w3.org/2000/svg">
<g clip-path="url(#clip0)">
<path d="M9.20731 6.40101C10.2681 6.41894 11.2924 6.7907 12.1177 7.45729L13.4279 8.51357C13.9363 8.94392 14.3458 9.47903 14.6283 10.0823C14.9107 10.6856 15.0595 11.3427 15.0645 12.0088V15.6355C15.0645 16.5105 14.3754 17.1633 13.3554 17.1633H3.0555V17.9657C3.05764 18.1823 3.1075 18.3957 3.20152 18.5908C3.29555 18.7859 3.43144 18.9579 3.59951 19.0945L4.90966 20.187C5.17243 20.4125 5.51128 20.5292 5.85714 20.5134H13.3554C14.4116 20.5134 15.0645 21.1663 15.0645 22.0412C15.0645 22.9161 14.3754 23.569 13.3554 23.569H5.82087C4.77136 23.5582 3.75711 23.1887 2.9467 22.5217L1.63655 21.4292C1.12808 21.0068 0.718134 20.4784 0.435432 19.8808C0.152729 19.2833 0.00411338 18.6312 0 17.9702L0 12.0043C0.00493719 11.3382 0.153728 10.681 0.436189 10.0778C0.718649 9.4745 1.12811 8.93938 1.63655 8.50904L2.9467 7.45729C3.75589 6.78707 4.77025 6.41428 5.82087 6.40101H9.20731ZM4.91419 9.78745L3.62671 10.8755C3.45864 11.0121 3.32275 11.184 3.22872 11.3792C3.1347 11.5743 3.08484 11.7877 3.0827 12.0043V14.0806H12.0089V12.0043C12.0029 11.7884 11.9514 11.5763 11.8576 11.3817C11.7639 11.1872 11.63 11.0147 11.4649 10.8755L10.1548 9.78292C9.88504 9.56526 9.55345 9.43834 9.20731 9.42025H5.85714C5.51238 9.43836 5.18224 9.56534 4.91419 9.78292V9.78745Z" fill="#231F20"/>
<path d="M38.5758 2.96145H19.9889C19.8014 2.96145 19.6215 3.03596 19.4889 3.16859C19.3562 3.30122 19.2817 3.4811 19.2817 3.66866V26.0908C19.2817 26.2784 19.3562 26.4582 19.4889 26.5909C19.6215 26.7235 19.8014 26.798 19.9889 26.798H38.5758C38.7634 26.798 38.9433 26.7235 39.0759 26.5909C39.2085 26.4582 39.283 26.2784 39.283 26.0908V3.66866C39.283 3.4811 39.2085 3.30122 39.0759 3.16859C38.9433 3.03596 38.7634 2.96145 38.5758 2.96145ZM35.2075 23.5566C34.9553 23.5474 34.7079 23.4844 34.4819 23.3718C34.256 23.2592 34.0567 23.0997 33.8974 22.9038L29.2053 17.1872L24.4861 22.8993C24.3321 23.1011 24.134 23.2648 23.9069 23.378C23.6797 23.4912 23.4297 23.5507 23.1759 23.5521C22.986 23.5581 22.7967 23.5267 22.6189 23.4596C22.4412 23.3924 22.2784 23.2909 22.1399 23.1608C22.0013 23.0307 21.8898 22.8746 21.8117 22.7014C21.7335 22.5281 21.6903 22.3412 21.6844 22.1513V22.0969C21.6899 21.6773 21.8515 21.2748 22.1378 20.9681L27.2378 14.8208L22.4324 9.03619C22.1287 8.69677 21.9665 8.2539 21.9791 7.79858C22.0189 7.43531 22.1876 7.09834 22.4546 6.84882C22.7216 6.59929 23.0692 6.45374 23.4343 6.43856C23.6958 6.4364 23.9543 6.4941 24.19 6.60725C24.4258 6.72041 24.6325 6.88601 24.7943 7.09137L29.2325 12.4408L33.5528 7.0687C33.709 6.86941 33.9077 6.70742 34.1343 6.5945C34.3609 6.48158 34.6098 6.42057 34.863 6.41589C35.2578 6.41827 35.6358 6.57617 35.915 6.85537C36.1942 7.13456 36.3521 7.51255 36.3545 7.90738C36.3412 8.32535 36.1807 8.72518 35.9011 9.03619L31.2045 14.7845L36.2729 20.9726C36.5629 21.2623 36.7259 21.6553 36.7262 22.0652C36.7286 22.2586 36.6929 22.4507 36.621 22.6304C36.5492 22.81 36.4427 22.9738 36.3075 23.1123C36.1724 23.2508 36.0113 23.3613 35.8335 23.4376C35.6556 23.5138 35.4645 23.5543 35.271 23.5566H35.2075Z" fill="#00A85D"/>
<path d="M46.3729 8.09371L47.1028 7.36384C47.5394 6.87489 48.0716 6.48062 48.6665 6.20538C49.2614 5.93014 49.9064 5.77977 50.5617 5.76355H51.2327C52.3008 5.77602 53.3307 6.16264 54.1431 6.8561L56.7271 9.00493C57.2317 9.4307 57.6389 9.95986 57.9212 10.5566C58.2036 11.1534 58.3545 11.8038 58.3637 12.4639V17.5186C58.3545 18.1787 58.2036 18.8292 57.9212 19.4259C57.6389 20.0227 57.2317 20.5518 56.7271 20.9776L54.1613 23.1355C53.3413 23.8267 52.305 24.2085 51.2327 24.2144H50.5436C49.8883 24.1982 49.2433 24.0479 48.6483 23.7726C48.0534 23.4974 47.5212 23.1031 47.0846 22.6142L46.3548 21.8843V28.29C46.3548 29.3462 45.6974 29.999 44.827 29.999C44.6119 29.995 44.3999 29.9466 44.2043 29.8569C44.0088 29.7672 43.8338 29.6381 43.6904 29.4776C43.547 29.3172 43.4383 29.129 43.371 28.9246C43.3037 28.7202 43.2793 28.5042 43.2992 28.29V7.47717C43.2992 6.38463 43.9566 5.76809 44.827 5.76809C45.0421 5.77214 45.2541 5.82055 45.4497 5.91026C45.6452 5.99998 45.8202 6.12908 45.9636 6.28949C46.107 6.4499 46.2157 6.63818 46.283 6.84254C46.3503 7.0469 46.3747 7.26295 46.3548 7.47717L46.3729 8.09371ZM49.5009 9.29506L46.7809 11.9879C46.6378 12.1241 46.5238 12.288 46.4459 12.4695C46.368 12.6511 46.3277 12.8466 46.3276 13.0442V16.9384C46.3277 17.1359 46.368 17.3314 46.4459 17.513C46.5238 17.6946 46.6378 17.8584 46.7809 17.9946L49.5009 20.6875C49.7726 20.9603 50.1363 21.122 50.5209 21.1408H51.2327C51.6373 21.1161 52.022 20.9564 52.3252 20.6875L54.8594 18.5749C55.1395 18.2934 55.3016 17.9156 55.3127 17.5186V12.4594C55.3054 12.0456 55.1437 11.6494 54.8594 11.3487L52.3116 9.19986C52.0028 8.95174 51.615 8.82301 51.2191 8.83719H50.53C50.3365 8.84028 50.1456 8.88243 49.9687 8.96111C49.7919 9.03979 49.6328 9.15338 49.5009 9.29506Z" fill="#231F20"/>
<path d="M71.2672 6.4054C72.328 6.42333 73.3523 6.7951 74.1777 7.46168L75.4878 8.51796C75.9963 8.94831 76.4057 9.48342 76.6882 10.0867C76.9706 10.6899 77.1194 11.3471 77.1244 12.0132V15.6399C77.1244 16.5149 76.4353 17.1677 75.4153 17.1677H65.12V17.9701C65.1221 18.1867 65.172 18.4001 65.266 18.5952C65.36 18.7903 65.4959 18.9623 65.664 19.0989L66.9741 20.1914C67.2369 20.4169 67.5757 20.5336 67.9216 20.5178H75.4198C76.4761 20.5178 77.1289 21.1707 77.1289 22.0456C77.1289 22.9205 76.4353 23.5733 75.4153 23.5733H67.8853C66.8347 23.5601 65.8203 23.1873 65.0112 22.5171L63.701 21.4245C63.1925 21.0021 62.7826 20.4737 62.4999 19.8762C62.2172 19.2787 62.0686 18.6265 62.0645 17.9655V12.0087C62.0694 11.3426 62.2182 10.6854 62.5006 10.0821C62.7831 9.47889 63.1926 8.94377 63.701 8.51343L65.0112 7.45715C65.8203 6.78693 66.8347 6.41414 67.8853 6.40087L71.2672 6.4054ZM66.9741 9.79185L65.664 10.8799C65.4959 11.0165 65.36 11.1884 65.266 11.3836C65.172 11.5787 65.1221 11.7921 65.12 12.0087V14.085H74.0734V12.0087C74.0674 11.7928 74.0158 11.5807 73.9221 11.3861C73.8283 11.1916 73.6945 11.0191 73.5294 10.8799L72.2192 9.78731C71.9495 9.56966 71.6179 9.44273 71.2718 9.42464H67.9261C67.5777 9.43827 67.2433 9.56565 66.9741 9.78731V9.79185Z" fill="#231F20"/>
<path d="M87.0013 0.00639597C88.0576 0.00639597 88.7104 0.659204 88.7104 1.53415V20.529H91.512C92.5683 20.529 93.2211 21.1819 93.2211 22.0568C93.2211 22.9317 92.5321 23.58 91.512 23.58H82.8487C81.7925 23.58 81.1396 22.9272 81.1396 22.0523C81.1437 21.8371 81.1921 21.6252 81.2818 21.4296C81.3715 21.234 81.5006 21.0591 81.6611 20.9157C81.8215 20.7723 82.0097 20.6636 82.2141 20.5963C82.4185 20.5289 82.6345 20.5045 82.8487 20.5245H85.6141V3.0619H82.8487C81.7562 3.0619 81.1396 2.40456 81.1396 1.53415C81.1444 1.31924 81.1932 1.10759 81.2831 0.912348C81.3731 0.717104 81.5022 0.54243 81.6625 0.399169C81.8227 0.255908 82.0107 0.147118 82.2148 0.0795513C82.4189 0.0119848 82.6346 -0.0129155 82.8487 0.00639597H87.0013Z" fill="#231F20"/>
<path d="M91.5673 0.191328C92.0146 0.191328 92.4435 0.369004 92.7598 0.68527C93.0761 1.00153 93.2538 1.43048 93.2538 1.87775C93.2538 2.32502 93.0761 2.75396 92.7598 3.07023C92.4435 3.38649 92.0146 3.56417 91.5673 3.56417C91.3454 3.56598 91.1253 3.5236 90.9198 3.43949C90.7144 3.35538 90.5278 3.23123 90.3708 3.07427C90.2139 2.91731 90.0897 2.73068 90.0056 2.52525C89.9215 2.31983 89.8791 2.09972 89.8809 1.87775C89.8791 1.65578 89.9215 1.43567 90.0056 1.23025C90.0897 1.02482 90.2139 0.838191 90.3708 0.68123C90.5278 0.52427 90.7144 0.400117 90.9198 0.316009C91.1253 0.2319 91.3454 0.189516 91.5673 0.191328ZM91.5673 3.31937C91.7536 3.31764 91.9377 3.27876 92.1088 3.20502C92.2799 3.13128 92.4345 3.02415 92.5637 2.88991C92.6929 2.75566 92.794 2.597 92.8611 2.42321C92.9282 2.24941 92.96 2.06397 92.9545 1.87775C92.9545 1.50984 92.8084 1.15699 92.5482 0.896839C92.2881 0.636685 91.9352 0.490532 91.5673 0.490532C91.1994 0.490532 90.8466 0.636685 90.5864 0.896839C90.3263 1.15699 90.1801 1.50984 90.1801 1.87775C90.1741 2.06413 90.2054 2.24984 90.2723 2.42391C90.3392 2.59798 90.4402 2.75689 90.5695 2.89126C90.6988 3.02564 90.8537 3.13275 91.0251 3.20627C91.1965 3.2798 91.3809 3.31825 91.5673 3.31937ZM90.9236 0.912137H91.6671C92.1204 0.912137 92.3561 1.09801 92.3561 1.47428C92.3606 1.54474 92.3503 1.61535 92.3259 1.6816C92.3015 1.74785 92.2636 1.80829 92.2145 1.85906C92.1655 1.90983 92.1063 1.9498 92.041 1.97644C91.9756 2.00307 91.9054 2.01578 91.8348 2.01375L92.4015 2.88416H92.0796L91.5673 2.01375H91.2455V2.86149H90.9463L90.9236 0.912137ZM91.2228 1.79161H91.5311C91.7985 1.79161 92.0569 1.79161 92.0569 1.46068C92.0569 1.12974 91.8212 1.15694 91.6036 1.15694H91.2092L91.2228 1.79161Z" fill="#231F20"/>
</g>
<defs>
<clipPath id="clip0">
<rect width="93.2609" height="30" fill="white"/>
</clipPath>
</defs>
</svg>
