<svg width="111" height="23" viewBox="0 0 111 23" fill="none" xmlns="http://www.w3.org/2000/svg">
<path fill-rule="evenodd" clip-rule="evenodd" d="M2.91016 1.17353C2.61604 0.997063 2.29251 0.908829 1.88074 0.908829C1.43957 0.908829 1.08663 0.997059 0.821921 1.17353C0.557215 1.35 0.410156 1.5853 0.410156 1.87941V21.2618C0.410156 21.4971 0.557215 21.7324 0.821921 21.9382C1.11604 22.1441 1.43957 22.2618 1.85133 22.2618C2.21966 22.2629 2.57928 22.1499 2.88075 21.9382C3.17486 21.7324 3.32192 21.4971 3.32192 21.2618V1.87941C3.35133 1.5853 3.20427 1.35 2.91016 1.17353ZM5.35133 11.35C5.17486 11.5265 5.08663 11.7618 5.14545 12.1147C5.17487 12.4676 5.32192 12.7912 5.61604 13.0853C5.88074 13.3794 6.20427 13.5853 6.55722 13.6735C6.91016 13.7618 7.17486 13.7029 7.35133 13.5559L8.91016 12.5853V21.2618C8.91016 21.4971 9.05721 21.7324 9.32192 21.9382C9.58663 22.1441 9.93957 22.2618 10.3513 22.2618C10.7631 22.2618 11.116 22.1441 11.4102 21.9382C11.7043 21.7324 11.8513 21.4971 11.8513 21.2618V9.55589C11.8513 9.26177 11.7043 9.05589 11.4102 8.87942C11.116 8.70294 10.7631 8.61471 10.3219 8.61471C9.88074 8.61471 9.55722 8.70294 9.29251 8.87942L5.35133 11.35ZM16.969 18.2029C16.969 18.7912 17.1455 19.2618 17.469 19.5559C17.7925 19.85 18.2337 20.0265 18.7631 20.0265C19.469 20.0265 20.1455 19.7324 20.7631 19.1441C21.4102 18.5559 21.7337 17.9088 21.7337 17.2324V16.2029H21.0278C20.2043 16.2029 19.5278 16.2324 18.9984 16.3206C18.469 16.4088 17.9984 16.5853 17.5866 16.9088C17.1749 17.2029 16.969 17.6441 16.969 18.2029ZM14.0278 18.5559C14.0278 17.0559 14.5866 16.0265 15.7043 15.4382C16.8219 14.85 18.4102 14.5559 20.5278 14.5559H21.7337V14.0265C21.7337 13.1735 21.4984 12.4676 21.0572 11.85C20.616 11.2324 19.9102 10.9382 18.9984 10.9382C18.2043 10.9382 17.4984 11.0853 16.9102 11.4088C16.3219 11.7029 15.969 11.8794 15.9102 11.8794C15.5866 11.8794 15.3513 11.7324 15.1455 11.4088C14.9396 11.1147 14.8513 10.7618 14.8513 10.3794C14.8513 9.90883 15.2925 9.46765 16.2043 9.11471C17.0866 8.76177 18.0572 8.5853 19.0572 8.5853C20.969 8.5853 22.3807 9.11471 23.2925 10.1441C24.2043 11.1735 24.6749 12.4676 24.6749 14.0265V21.0265C24.6749 21.2912 24.5278 21.5265 24.2631 21.7029C23.9984 21.9088 23.6455 21.9971 23.2631 21.9971C22.8807 21.9971 22.5866 21.9088 22.3219 21.7029C22.0572 21.4971 21.9396 21.2912 21.9396 21.0265V20.0559C20.7043 21.4971 19.2925 22.2324 17.7631 22.2324C16.6749 22.2324 15.7925 21.9088 15.116 21.2912C14.3807 20.6735 14.0278 19.7618 14.0278 18.5559ZM27.1749 16.7029V14.1735C27.1749 12.5265 27.6455 11.1735 28.616 10.1441C29.5866 9.11471 30.9984 8.61471 32.9102 8.61471C34.116 8.61471 35.116 8.82059 35.9396 9.23235C36.7631 9.64412 37.1749 10.1147 37.1749 10.6441C37.1749 10.9676 37.0572 11.2912 36.8219 11.5853C36.5866 11.9088 36.3219 12.0559 35.9984 12.0559C35.9102 12.0559 35.5866 11.9088 34.9984 11.6441C34.4396 11.3794 33.8219 11.2324 33.116 11.2324C31.0866 11.2324 30.0572 12.2029 30.0572 14.1735V16.6735C30.0572 18.6441 31.0866 19.6147 33.1455 19.6147C33.8513 19.6147 34.469 19.4676 35.0572 19.1735C35.616 18.8794 35.969 18.7324 36.0572 18.7324C36.4396 18.7324 36.7337 18.8794 36.969 19.1735C37.2043 19.4676 37.3219 19.7912 37.3219 20.1147C37.3219 20.6441 36.9102 21.1147 36.0572 21.5559C35.2043 21.9971 34.1749 22.2324 32.9396 22.2324C31.0278 22.2324 29.5866 21.7324 28.616 20.7029C27.6749 19.7324 27.1749 18.3794 27.1749 16.7029ZM39.469 21.0559V1.85C39.469 1.55589 39.5866 1.35 39.8513 1.17353C40.116 0.997063 40.4396 0.908829 40.8807 0.908829C41.2925 0.908829 41.6749 0.997059 41.9396 1.17353C42.2337 1.35 42.3807 1.5853 42.3807 1.85V14.2912L48.1749 8.93824C48.3513 8.76177 48.5572 8.67353 48.7925 8.67353C49.116 8.67353 49.4102 8.82059 49.7337 9.11471C50.0572 9.40883 50.2043 9.73236 50.2043 10.0559C50.2043 10.2912 50.116 10.4971 49.969 10.6735L46.3807 13.8794L50.7337 20.2029C50.8513 20.3794 50.9102 20.5265 50.9102 20.7029C50.9102 21.0265 50.7337 21.3794 50.3513 21.7029C49.969 22.0265 49.616 22.2029 49.2631 22.2029C48.9396 22.2029 48.7043 22.0559 48.4984 21.7912L44.4102 15.7324L42.3807 17.5853V21.0853C42.3807 21.3206 42.2337 21.5559 41.9396 21.7618C41.6455 21.9676 41.2925 22.0559 40.8807 22.0559C40.469 22.0559 40.1455 21.9677 39.8807 21.7618C39.616 21.5265 39.469 21.2912 39.469 21.0559ZM54.9102 14.3206H59.5278C59.9396 14.3206 60.2043 14.2618 60.3513 14.1441C60.4984 14.0265 60.5572 13.8206 60.5572 13.4676C60.5572 12.7324 60.2925 12.1147 59.7631 11.5853C59.2337 11.0853 58.5572 10.8206 57.7631 10.8206C56.9984 10.8206 56.3219 11.0559 55.7631 11.5559C55.2043 12.0559 54.9396 12.6735 54.9396 13.4088V14.3206H54.9102ZM51.9984 16.7029V14.0559C51.9984 12.5853 52.5572 11.3206 53.7043 10.2324C54.8219 9.17353 56.2043 8.61471 57.7925 8.61471C59.3219 8.61471 60.616 9.11471 61.7043 10.0559C62.7925 11.0265 63.3219 12.2324 63.3219 13.7324C63.3219 14.2912 63.2631 14.7618 63.116 15.1147C62.9984 15.4676 62.7925 15.7029 62.4984 15.85C62.2337 15.9971 61.969 16.0853 61.7337 16.1147C61.4984 16.1441 61.1749 16.1735 60.7925 16.1735H54.9396V16.8206C54.9396 17.7618 55.2631 18.4971 55.9396 19.0559C56.616 19.6147 57.469 19.8794 58.5572 19.8794C59.3219 19.8794 60.0278 19.7029 60.7043 19.35C61.3807 18.9971 61.7925 18.8206 61.9396 18.8206C62.2631 18.8206 62.5278 18.9677 62.7337 19.2618C62.969 19.5559 63.0572 19.85 63.0572 20.1441C63.0572 20.6147 62.616 21.0559 61.7337 21.5559C60.8513 22.0265 59.7631 22.2618 58.469 22.2618C56.5866 22.2618 55.0278 21.7618 53.8219 20.7324C52.5866 19.7029 51.9984 18.35 51.9984 16.7029V16.7029ZM65.6454 21.0559V9.73236C65.6454 9.43824 65.7925 9.23235 66.0572 9.05588C66.3219 8.87941 66.6749 8.79118 67.0866 8.79118C67.4396 8.79118 67.7631 8.87941 68.0278 9.05588C68.2925 9.23235 68.4102 9.46765 68.4102 9.76177V10.9971C68.7337 10.35 69.2043 9.79118 69.8513 9.32059C70.4984 8.85 71.1749 8.61471 71.9396 8.61471H72.8219C73.116 8.61471 73.3807 8.73235 73.5866 8.99706C73.8219 9.26177 73.9102 9.55589 73.9102 9.90883C73.9102 10.2618 73.7925 10.5853 73.5866 10.85C73.3513 11.1147 73.116 11.2324 72.8219 11.2324H71.9396C71.0572 11.2324 70.2631 11.6147 69.5866 12.3794C68.9102 13.1441 68.5866 14.1147 68.5866 15.3206V21.0265C68.5866 21.2618 68.4396 21.4971 68.1454 21.7029C67.8513 21.9088 67.4984 21.9971 67.0866 21.9971C66.6749 21.9971 66.3513 21.9088 66.0572 21.7029C65.7631 21.5265 65.6454 21.2912 65.6454 21.0559ZM76.5278 16.9088C76.5278 17.85 76.8513 18.7029 77.5278 19.4382C78.2043 20.1735 79.0278 20.5265 79.969 20.5265C80.9396 20.5265 81.7631 20.1735 82.4396 19.4382C83.116 18.7029 83.469 17.8794 83.469 16.9088V13.8794C83.469 12.9676 83.116 12.1441 82.4396 11.4382C81.7337 10.7029 80.9396 10.35 79.9984 10.35C79.0572 10.35 78.2337 10.7029 77.5572 11.4382C76.8807 12.1735 76.5572 12.9676 76.5572 13.8794V16.9088H76.5278ZM74.7337 16.9088V13.8794C74.7337 12.4676 75.2631 11.2324 76.2925 10.2029C77.3219 9.17353 78.5572 8.64412 79.9984 8.64412C81.4102 8.64412 82.6749 9.14412 83.7043 10.1735C84.7631 11.2029 85.2925 12.4382 85.2925 13.85V16.8794C85.2925 18.2618 84.7631 19.4971 83.7043 20.5853C82.6454 21.6441 81.4102 22.2029 79.9984 22.2029C78.616 22.2029 77.3807 21.6735 76.3219 20.5853C75.2631 19.5559 74.7337 18.3206 74.7337 16.9088ZM87.469 21.2912V9.49706C87.469 9.29118 87.5572 9.14412 87.7043 8.99706C87.8808 8.87941 88.0866 8.82059 88.3513 8.82059C88.5866 8.82059 88.7631 8.87942 88.9396 9.02647C89.116 9.17353 89.1749 9.32059 89.1749 9.49706V10.7912C89.4984 10.1735 89.969 9.67353 90.616 9.26177C91.2631 8.85 92.0278 8.64412 92.8807 8.64412C94.2043 8.64412 95.3808 9.14412 96.3513 10.1735C97.3219 11.2029 97.8219 12.4382 97.8219 13.85V21.2912C97.8219 21.5265 97.7337 21.7029 97.5572 21.8206C97.3807 21.9382 97.1455 22.0265 96.9102 22.0265C96.6749 22.0265 96.4984 21.9676 96.2925 21.8206C96.116 21.7029 96.0278 21.5265 96.0278 21.2912V13.8794C96.0278 12.9676 95.6749 12.1441 94.9984 11.4382C94.3219 10.7029 93.4984 10.35 92.5572 10.35C91.6749 10.35 90.9102 10.6735 90.2631 11.3206C89.5866 11.9676 89.2631 12.8206 89.2631 13.8794V21.2912C89.2631 21.4676 89.1749 21.6441 88.969 21.7912C88.7925 21.9382 88.5866 22.0265 88.3219 22.0265C88.0572 22.0265 87.8513 21.9382 87.6749 21.7912C87.5572 21.6735 87.469 21.4971 87.469 21.2912ZM101.734 14.6147H107.293C107.851 14.6147 108.204 14.5559 108.41 14.4382C108.587 14.3206 108.675 14.0559 108.675 13.6735C108.675 12.7618 108.351 11.9382 107.675 11.2324C107.028 10.5265 106.204 10.1735 105.204 10.1735C104.234 10.1735 103.41 10.4971 102.734 11.1735C102.057 11.85 101.734 12.6441 101.734 13.5559V14.6147ZM99.9396 16.9088V13.7912C99.9396 12.3794 100.469 11.1735 101.498 10.1735C102.528 9.17353 103.793 8.64412 105.234 8.64412C106.645 8.64412 107.851 9.14412 108.881 10.0853C109.91 11.0559 110.41 12.2618 110.41 13.7324C110.41 14.2618 110.351 14.6735 110.234 14.9971C110.116 15.3206 109.91 15.5265 109.645 15.6735C109.381 15.7912 109.145 15.8794 108.91 15.9382C108.675 15.9676 108.381 15.9971 107.998 15.9971H101.734V17.0265C101.734 18.1147 102.116 18.9971 102.91 19.6735C103.704 20.3206 104.704 20.6735 105.94 20.6735C106.557 20.6735 107.116 20.5853 107.587 20.3794C107.97 20.2361 108.335 20.0486 108.675 19.8206C108.94 19.6441 109.116 19.5265 109.263 19.5265C109.469 19.5265 109.645 19.6147 109.793 19.8206C109.94 20.0265 110.028 20.2029 110.028 20.3794C110.028 20.7618 109.616 21.1735 108.822 21.5853C108.028 21.9971 107.028 22.2029 105.851 22.2029C104.087 22.2029 102.675 21.7029 101.557 20.7324C100.498 19.7912 99.9396 18.4971 99.9396 16.9088V16.9088Z" fill="#000200"/>
</svg>
