<?xml version="1.0" encoding="UTF-8" standalone="no"?>
<!DOCTYPE svg PUBLIC "-//W3C//DTD SVG 1.1//EN"
 "http://www.w3.org/Graphics/SVG/1.1/DTD/svg11.dtd">
<!-- Generated by graphviz version 2.46.0 (20210118.1747)
 -->
<!-- Title: G Pages: 1 -->
<svg width="3905pt" height="1490pt"
 viewBox="0.00 0.00 3905.20 1490.20" xmlns="http://www.w3.org/2000/svg" xmlns:xlink="http://www.w3.org/1999/xlink">
<g id="graph0" class="graph" transform="scale(1 1) rotate(0) translate(21.6 1468.6)">
<title>G</title>
<polygon fill="#111111" stroke="transparent" points="-21.6,21.6 -21.6,-1468.6 3883.6,-1468.6 3883.6,21.6 -21.6,21.6"/>
<!-- api/apiConfiguration.ts -->
<g id="node1" class="node">
<title>api/apiConfiguration.ts</title>
<path fill="none" stroke="#c6c5fe" d="M1942.33,-245C1942.33,-245 1806.67,-245 1806.67,-245 1802.83,-245 1799,-241.17 1799,-237.33 1799,-237.33 1799,-229.67 1799,-229.67 1799,-225.83 1802.83,-222 1806.67,-222 1806.67,-222 1942.33,-222 1942.33,-222 1946.17,-222 1950,-225.83 1950,-229.67 1950,-229.67 1950,-237.33 1950,-237.33 1950,-241.17 1946.17,-245 1942.33,-245"/>
<text text-anchor="middle" x="1874.5" y="-229.8" font-family="Arial" font-size="14.00" fill="#c6c5fe">api/apiConfiguration.ts</text>
</g>
<!-- api/endpoints.ts -->
<g id="node2" class="node">
<title>api/endpoints.ts</title>
<path fill="none" stroke="#cfffac" d="M2371.83,-326C2371.83,-326 2276.17,-326 2276.17,-326 2272.33,-326 2268.5,-322.17 2268.5,-318.33 2268.5,-318.33 2268.5,-310.67 2268.5,-310.67 2268.5,-306.83 2272.33,-303 2276.17,-303 2276.17,-303 2371.83,-303 2371.83,-303 2375.67,-303 2379.5,-306.83 2379.5,-310.67 2379.5,-310.67 2379.5,-318.33 2379.5,-318.33 2379.5,-322.17 2375.67,-326 2371.83,-326"/>
<text text-anchor="middle" x="2324" y="-310.8" font-family="Arial" font-size="14.00" fill="#cfffac">api/endpoints.ts</text>
</g>
<!-- api/apiConfiguration.ts&#45;&gt;api/endpoints.ts -->
<g id="edge1" class="edge">
<title>api/apiConfiguration.ts&#45;&gt;api/endpoints.ts</title>
<path fill="none" stroke="#757575" d="M1950.25,-232.64C2005.11,-233.54 2081.07,-238 2146,-253.5 2162.86,-257.52 2165.75,-262.47 2182,-268.5 2212.64,-279.86 2247.55,-291.26 2274.97,-299.87"/>
<polygon fill="#757575" stroke="#757575" points="2274.13,-303.28 2284.72,-302.91 2276.21,-296.59 2274.13,-303.28"/>
</g>
<!-- api/apiMock.ts -->
<g id="node3" class="node">
<title>api/apiMock.ts</title>
<path fill="none" stroke="#c6c5fe" d="M244.83,-689C244.83,-689 156.17,-689 156.17,-689 152.33,-689 148.5,-685.17 148.5,-681.33 148.5,-681.33 148.5,-673.67 148.5,-673.67 148.5,-669.83 152.33,-666 156.17,-666 156.17,-666 244.83,-666 244.83,-666 248.67,-666 252.5,-669.83 252.5,-673.67 252.5,-673.67 252.5,-681.33 252.5,-681.33 252.5,-685.17 248.67,-689 244.83,-689"/>
<text text-anchor="middle" x="200.5" y="-673.8" font-family="Arial" font-size="14.00" fill="#c6c5fe">api/apiMock.ts</text>
</g>
<!-- test/mocks.ts -->
<g id="node4" class="node">
<title>test/mocks.ts</title>
<path fill="none" stroke="#c6c5fe" d="M773.83,-689C773.83,-689 693.17,-689 693.17,-689 689.33,-689 685.5,-685.17 685.5,-681.33 685.5,-681.33 685.5,-673.67 685.5,-673.67 685.5,-669.83 689.33,-666 693.17,-666 693.17,-666 773.83,-666 773.83,-666 777.67,-666 781.5,-669.83 781.5,-673.67 781.5,-673.67 781.5,-681.33 781.5,-681.33 781.5,-685.17 777.67,-689 773.83,-689"/>
<text text-anchor="middle" x="733.5" y="-673.8" font-family="Arial" font-size="14.00" fill="#c6c5fe">test/mocks.ts</text>
</g>
<!-- api/apiMock.ts&#45;&gt;test/mocks.ts -->
<g id="edge2" class="edge">
<title>api/apiMock.ts&#45;&gt;test/mocks.ts</title>
<path fill="none" stroke="#757575" d="M252.9,-677.5C352.52,-677.5 571.22,-677.5 675.29,-677.5"/>
<polygon fill="#757575" stroke="#757575" points="675.3,-681 685.3,-677.5 675.3,-674 675.3,-681"/>
</g>
<!-- test/responses/filesAccessed.json -->
<g id="node53" class="node">
<title>test/responses/filesAccessed.json</title>
<path fill="none" stroke="#cfffac" d="M1418.33,-689C1418.33,-689 1214.67,-689 1214.67,-689 1210.83,-689 1207,-685.17 1207,-681.33 1207,-681.33 1207,-673.67 1207,-673.67 1207,-669.83 1210.83,-666 1214.67,-666 1214.67,-666 1418.33,-666 1418.33,-666 1422.17,-666 1426,-669.83 1426,-673.67 1426,-673.67 1426,-681.33 1426,-681.33 1426,-685.17 1422.17,-689 1418.33,-689"/>
<text text-anchor="middle" x="1316.5" y="-673.8" font-family="Arial" font-size="14.00" fill="#cfffac">test/responses/filesAccessed.json</text>
</g>
<!-- test/mocks.ts&#45;&gt;test/responses/filesAccessed.json -->
<g id="edge54" class="edge">
<title>test/mocks.ts&#45;&gt;test/responses/filesAccessed.json</title>
<path fill="none" stroke="#757575" d="M781.55,-677.5C871.11,-677.5 1068.56,-677.5 1196.62,-677.5"/>
<polygon fill="#757575" stroke="#757575" points="1196.87,-681 1206.87,-677.5 1196.87,-674 1196.87,-681"/>
</g>
<!-- components/app&#45;spotlight/AppSpotlightAppScopes/AppSpotlightAppScopes.scss -->
<g id="node5" class="node">
<title>components/app&#45;spotlight/AppSpotlightAppScopes/AppSpotlightAppScopes.scss</title>
<path fill="none" stroke="#cfffac" d="M1559.33,-730C1559.33,-730 1073.67,-730 1073.67,-730 1069.83,-730 1066,-726.17 1066,-722.33 1066,-722.33 1066,-714.67 1066,-714.67 1066,-710.83 1069.83,-707 1073.67,-707 1073.67,-707 1559.33,-707 1559.33,-707 1563.17,-707 1567,-710.83 1567,-714.67 1567,-714.67 1567,-722.33 1567,-722.33 1567,-726.17 1563.17,-730 1559.33,-730"/>
<text text-anchor="middle" x="1316.5" y="-714.8" font-family="Arial" font-size="14.00" fill="#cfffac">components/app&#45;spotlight/AppSpotlightAppScopes/AppSpotlightAppScopes.scss</text>
</g>
<!-- components/app&#45;spotlight/AppSpotlightAppScopes/AppSpotlightAppScopes.tsx -->
<g id="node6" class="node">
<title>components/app&#45;spotlight/AppSpotlightAppScopes/AppSpotlightAppScopes.tsx</title>
<path fill="none" stroke="#c6c5fe" d="M971.33,-730C971.33,-730 495.67,-730 495.67,-730 491.83,-730 488,-726.17 488,-722.33 488,-722.33 488,-714.67 488,-714.67 488,-710.83 491.83,-707 495.67,-707 495.67,-707 971.33,-707 971.33,-707 975.17,-707 979,-710.83 979,-714.67 979,-714.67 979,-722.33 979,-722.33 979,-726.17 975.17,-730 971.33,-730"/>
<text text-anchor="middle" x="733.5" y="-714.8" font-family="Arial" font-size="14.00" fill="#c6c5fe">components/app&#45;spotlight/AppSpotlightAppScopes/AppSpotlightAppScopes.tsx</text>
</g>
<!-- components/app&#45;spotlight/AppSpotlightAppScopes/AppSpotlightAppScopes.tsx&#45;&gt;components/app&#45;spotlight/AppSpotlightAppScopes/AppSpotlightAppScopes.scss -->
<g id="edge3" class="edge">
<title>components/app&#45;spotlight/AppSpotlightAppScopes/AppSpotlightAppScopes.tsx&#45;&gt;components/app&#45;spotlight/AppSpotlightAppScopes/AppSpotlightAppScopes.scss</title>
<path fill="none" stroke="#757575" d="M979.21,-718.5C1004.54,-718.5 1030.34,-718.5 1055.82,-718.5"/>
<polygon fill="#757575" stroke="#757575" points="1055.95,-722 1065.95,-718.5 1055.95,-715 1055.95,-722"/>
</g>
<!-- components/app&#45;spotlight/AppSpotlightAppScopes/index.ts -->
<g id="node7" class="node">
<title>components/app&#45;spotlight/AppSpotlightAppScopes/index.ts</title>
<path fill="none" stroke="#c6c5fe" d="M378.33,-730C378.33,-730 22.67,-730 22.67,-730 18.83,-730 15,-726.17 15,-722.33 15,-722.33 15,-714.67 15,-714.67 15,-710.83 18.83,-707 22.67,-707 22.67,-707 378.33,-707 378.33,-707 382.17,-707 386,-710.83 386,-714.67 386,-714.67 386,-722.33 386,-722.33 386,-726.17 382.17,-730 378.33,-730"/>
<text text-anchor="middle" x="200.5" y="-714.8" font-family="Arial" font-size="14.00" fill="#c6c5fe">components/app&#45;spotlight/AppSpotlightAppScopes/index.ts</text>
</g>
<!-- components/app&#45;spotlight/AppSpotlightAppScopes/index.ts&#45;&gt;components/app&#45;spotlight/AppSpotlightAppScopes/AppSpotlightAppScopes.tsx -->
<g id="edge4" class="edge">
<title>components/app&#45;spotlight/AppSpotlightAppScopes/index.ts&#45;&gt;components/app&#45;spotlight/AppSpotlightAppScopes/AppSpotlightAppScopes.tsx</title>
<path fill="none" stroke="#757575" d="M386.1,-718.5C415.69,-718.5 446.75,-718.5 477.63,-718.5"/>
<polygon fill="#757575" stroke="#757575" points="477.64,-722 487.64,-718.5 477.64,-715 477.64,-722"/>
</g>
<!-- components/base/NavigationItems/index.ts -->
<g id="node8" class="node">
<title>components/base/NavigationItems/index.ts</title>
<path fill="none" stroke="#c6c5fe" d="M330.33,-873C330.33,-873 70.67,-873 70.67,-873 66.83,-873 63,-869.17 63,-865.33 63,-865.33 63,-857.67 63,-857.67 63,-853.83 66.83,-850 70.67,-850 70.67,-850 330.33,-850 330.33,-850 334.17,-850 338,-853.83 338,-857.67 338,-857.67 338,-865.33 338,-865.33 338,-869.17 334.17,-873 330.33,-873"/>
<text text-anchor="middle" x="200.5" y="-857.8" font-family="Arial" font-size="14.00" fill="#c6c5fe">components/base/NavigationItems/index.ts</text>
</g>
<!-- icons/ic&#45;dashboard.tsx -->
<g id="node9" class="node">
<title>icons/ic&#45;dashboard.tsx</title>
<path fill="none" stroke="#c6c5fe" d="M801.33,-976C801.33,-976 665.67,-976 665.67,-976 661.83,-976 658,-972.17 658,-968.33 658,-968.33 658,-960.67 658,-960.67 658,-956.83 661.83,-953 665.67,-953 665.67,-953 801.33,-953 801.33,-953 805.17,-953 809,-956.83 809,-960.67 809,-960.67 809,-968.33 809,-968.33 809,-972.17 805.17,-976 801.33,-976"/>
<text text-anchor="middle" x="733.5" y="-960.8" font-family="Arial" font-size="14.00" fill="#c6c5fe">icons/ic&#45;dashboard.tsx</text>
</g>
<!-- components/base/NavigationItems/index.ts&#45;&gt;icons/ic&#45;dashboard.tsx -->
<g id="edge5" class="edge">
<title>components/base/NavigationItems/index.ts&#45;&gt;icons/ic&#45;dashboard.tsx</title>
<path fill="none" stroke="#757575" d="M338.26,-858.77C360.47,-863.01 382.29,-870.38 401,-882.5 427.74,-899.82 409.94,-927.68 437,-944.5 504.57,-986.5 598.4,-985.04 662.07,-977.31"/>
<polygon fill="#757575" stroke="#757575" points="662.56,-980.77 672.02,-976.02 661.66,-973.83 662.56,-980.77"/>
</g>
<!-- icons/iron.tsx -->
<g id="node10" class="node">
<title>icons/iron.tsx</title>
<path fill="none" stroke="#c6c5fe" d="M773.33,-935C773.33,-935 693.67,-935 693.67,-935 689.83,-935 686,-931.17 686,-927.33 686,-927.33 686,-919.67 686,-919.67 686,-915.83 689.83,-912 693.67,-912 693.67,-912 773.33,-912 773.33,-912 777.17,-912 781,-915.83 781,-919.67 781,-919.67 781,-927.33 781,-927.33 781,-931.17 777.17,-935 773.33,-935"/>
<text text-anchor="middle" x="733.5" y="-919.8" font-family="Arial" font-size="14.00" fill="#c6c5fe">icons/iron.tsx</text>
</g>
<!-- components/base/NavigationItems/index.ts&#45;&gt;icons/iron.tsx -->
<g id="edge6" class="edge">
<title>components/base/NavigationItems/index.ts&#45;&gt;icons/iron.tsx</title>
<path fill="none" stroke="#757575" d="M338.07,-868.1C359.45,-871.35 381.06,-875.97 401,-882.5 418.6,-888.26 419.29,-898.06 437,-903.5 517.16,-928.1 615.09,-929.48 675.64,-927.23"/>
<polygon fill="#757575" stroke="#757575" points="675.91,-930.73 685.76,-926.81 675.62,-923.73 675.91,-930.73"/>
</g>
<!-- icons/plugin.tsx -->
<g id="node11" class="node">
<title>icons/plugin.tsx</title>
<path fill="none" stroke="#c6c5fe" d="M780.33,-894C780.33,-894 686.67,-894 686.67,-894 682.83,-894 679,-890.17 679,-886.33 679,-886.33 679,-878.67 679,-878.67 679,-874.83 682.83,-871 686.67,-871 686.67,-871 780.33,-871 780.33,-871 784.17,-871 788,-874.83 788,-878.67 788,-878.67 788,-886.33 788,-886.33 788,-890.17 784.17,-894 780.33,-894"/>
<text text-anchor="middle" x="733.5" y="-878.8" font-family="Arial" font-size="14.00" fill="#c6c5fe">icons/plugin.tsx</text>
</g>
<!-- components/base/NavigationItems/index.ts&#45;&gt;icons/plugin.tsx -->
<g id="edge7" class="edge">
<title>components/base/NavigationItems/index.ts&#45;&gt;icons/plugin.tsx</title>
<path fill="none" stroke="#757575" d="M338.25,-866.91C444.63,-871.12 587.4,-876.76 668.71,-879.98"/>
<polygon fill="#757575" stroke="#757575" points="668.67,-883.48 678.8,-880.38 668.94,-876.48 668.67,-883.48"/>
</g>
<!-- icons/risk&#45;settings.tsx -->
<g id="node12" class="node">
<title>icons/risk&#45;settings.tsx</title>
<path fill="none" stroke="#c6c5fe" d="M798.33,-853C798.33,-853 668.67,-853 668.67,-853 664.83,-853 661,-849.17 661,-845.33 661,-845.33 661,-837.67 661,-837.67 661,-833.83 664.83,-830 668.67,-830 668.67,-830 798.33,-830 798.33,-830 802.17,-830 806,-833.83 806,-837.67 806,-837.67 806,-845.33 806,-845.33 806,-849.17 802.17,-853 798.33,-853"/>
<text text-anchor="middle" x="733.5" y="-837.8" font-family="Arial" font-size="14.00" fill="#c6c5fe">icons/risk&#45;settings.tsx</text>
</g>
<!-- components/base/NavigationItems/index.ts&#45;&gt;icons/risk&#45;settings.tsx -->
<g id="edge8" class="edge">
<title>components/base/NavigationItems/index.ts&#45;&gt;icons/risk&#45;settings.tsx</title>
<path fill="none" stroke="#757575" d="M338.25,-856.35C437.07,-852.63 567.28,-847.72 650.47,-844.59"/>
<polygon fill="#757575" stroke="#757575" points="650.77,-848.08 660.63,-844.21 650.51,-841.09 650.77,-848.08"/>
</g>
<!-- icons/search.tsx -->
<g id="node13" class="node">
<title>icons/search.tsx</title>
<path fill="none" stroke="#c6c5fe" d="M782.33,-812C782.33,-812 684.67,-812 684.67,-812 680.83,-812 677,-808.17 677,-804.33 677,-804.33 677,-796.67 677,-796.67 677,-792.83 680.83,-789 684.67,-789 684.67,-789 782.33,-789 782.33,-789 786.17,-789 790,-792.83 790,-796.67 790,-796.67 790,-804.33 790,-804.33 790,-808.17 786.17,-812 782.33,-812"/>
<text text-anchor="middle" x="733.5" y="-796.8" font-family="Arial" font-size="14.00" fill="#c6c5fe">icons/search.tsx</text>
</g>
<!-- components/base/NavigationItems/index.ts&#45;&gt;icons/search.tsx -->
<g id="edge9" class="edge">
<title>components/base/NavigationItems/index.ts&#45;&gt;icons/search.tsx</title>
<path fill="none" stroke="#757575" d="M259.82,-849.97C307.34,-840.97 376.27,-828.8 437,-821.5 515.68,-812.04 606.7,-806.36 666.7,-803.34"/>
<polygon fill="#757575" stroke="#757575" points="666.98,-806.83 676.79,-802.84 666.63,-799.84 666.98,-806.83"/>
</g>
<!-- icons/settings.tsx -->
<g id="node14" class="node">
<title>icons/settings.tsx</title>
<path fill="none" stroke="#c6c5fe" d="M785.33,-771C785.33,-771 681.67,-771 681.67,-771 677.83,-771 674,-767.17 674,-763.33 674,-763.33 674,-755.67 674,-755.67 674,-751.83 677.83,-748 681.67,-748 681.67,-748 785.33,-748 785.33,-748 789.17,-748 793,-751.83 793,-755.67 793,-755.67 793,-763.33 793,-763.33 793,-767.17 789.17,-771 785.33,-771"/>
<text text-anchor="middle" x="733.5" y="-755.8" font-family="Arial" font-size="14.00" fill="#c6c5fe">icons/settings.tsx</text>
</g>
<!-- components/base/NavigationItems/index.ts&#45;&gt;icons/settings.tsx -->
<g id="edge10" class="edge">
<title>components/base/NavigationItems/index.ts&#45;&gt;icons/settings.tsx</title>
<path fill="none" stroke="#757575" d="M227.34,-849.92C270.01,-831.4 358.31,-795.56 437,-779.5 513.56,-763.88 603.35,-759.75 663.68,-758.98"/>
<polygon fill="#757575" stroke="#757575" points="663.89,-762.48 673.85,-758.88 663.82,-755.48 663.89,-762.48"/>
</g>
<!-- icons/BaseIcon.tsx -->
<g id="node40" class="node">
<title>icons/BaseIcon.tsx</title>
<path fill="none" stroke="#cfffac" d="M1373.33,-874C1373.33,-874 1259.67,-874 1259.67,-874 1255.83,-874 1252,-870.17 1252,-866.33 1252,-866.33 1252,-858.67 1252,-858.67 1252,-854.83 1255.83,-851 1259.67,-851 1259.67,-851 1373.33,-851 1373.33,-851 1377.17,-851 1381,-854.83 1381,-858.67 1381,-858.67 1381,-866.33 1381,-866.33 1381,-870.17 1377.17,-874 1373.33,-874"/>
<text text-anchor="middle" x="1316.5" y="-858.8" font-family="Arial" font-size="14.00" fill="#cfffac">icons/BaseIcon.tsx</text>
</g>
<!-- icons/ic&#45;dashboard.tsx&#45;&gt;icons/BaseIcon.tsx -->
<g id="edge40" class="edge">
<title>icons/ic&#45;dashboard.tsx&#45;&gt;icons/BaseIcon.tsx</title>
<path fill="none" stroke="#757575" d="M809.1,-963.81C869.17,-962.21 955.55,-957.56 1030,-944.5 1118.46,-928.98 1218.7,-896.63 1273.74,-877.53"/>
<polygon fill="#757575" stroke="#757575" points="1275.2,-880.72 1283.48,-874.12 1272.89,-874.12 1275.2,-880.72"/>
</g>
<!-- icons/iron.tsx&#45;&gt;icons/BaseIcon.tsx -->
<g id="edge41" class="edge">
<title>icons/iron.tsx&#45;&gt;icons/BaseIcon.tsx</title>
<path fill="none" stroke="#757575" d="M781.17,-921.43C839.49,-918.58 942.3,-912.75 1030,-903.5 1102.23,-895.88 1184.26,-883.73 1241.8,-874.64"/>
<polygon fill="#757575" stroke="#757575" points="1242.56,-878.06 1251.89,-873.03 1241.46,-871.15 1242.56,-878.06"/>
</g>
<!-- icons/plugin.tsx&#45;&gt;icons/BaseIcon.tsx -->
<g id="edge42" class="edge">
<title>icons/plugin.tsx&#45;&gt;icons/BaseIcon.tsx</title>
<path fill="none" stroke="#757575" d="M788.12,-880.65C892.53,-877.06 1123.26,-869.12 1241.89,-865.03"/>
<polygon fill="#757575" stroke="#757575" points="1242.1,-868.53 1251.97,-864.69 1241.86,-861.53 1242.1,-868.53"/>
</g>
<!-- icons/risk&#45;settings.tsx&#45;&gt;icons/BaseIcon.tsx -->
<g id="edge43" class="edge">
<title>icons/risk&#45;settings.tsx&#45;&gt;icons/BaseIcon.tsx</title>
<path fill="none" stroke="#757575" d="M806.03,-844.09C916.92,-848.09 1129.2,-855.77 1241.55,-859.83"/>
<polygon fill="#757575" stroke="#757575" points="1241.65,-863.33 1251.77,-860.2 1241.9,-856.34 1241.65,-863.33"/>
</g>
<!-- icons/search.tsx&#45;&gt;icons/BaseIcon.tsx -->
<g id="edge44" class="edge">
<title>icons/search.tsx&#45;&gt;icons/BaseIcon.tsx</title>
<path fill="none" stroke="#757575" d="M790.16,-803.26C849.64,-806.49 946.64,-812.56 1030,-821.5 1102.22,-829.24 1184.25,-841.37 1241.79,-850.43"/>
<polygon fill="#757575" stroke="#757575" points="1241.46,-853.92 1251.88,-852.03 1242.55,-847.01 1241.46,-853.92"/>
</g>
<!-- icons/settings.tsx&#45;&gt;icons/BaseIcon.tsx -->
<g id="edge45" class="edge">
<title>icons/settings.tsx&#45;&gt;icons/BaseIcon.tsx</title>
<path fill="none" stroke="#757575" d="M793.26,-759.77C853.22,-760.9 948.74,-765.11 1030,-779.5 1118.76,-795.22 1219.28,-828.11 1274.21,-847.44"/>
<polygon fill="#757575" stroke="#757575" points="1273.33,-850.84 1283.92,-850.88 1275.66,-844.24 1273.33,-850.84"/>
</g>
<!-- components/elements/PermissionDeletionStatus/PermissionDeletionStatus.scss -->
<g id="node15" class="node">
<title>components/elements/PermissionDeletionStatus/PermissionDeletionStatus.scss</title>
<path fill="none" stroke="#c6c5fe" d="M2993.33,-144C2993.33,-144 2509.67,-144 2509.67,-144 2505.83,-144 2502,-140.17 2502,-136.33 2502,-136.33 2502,-128.67 2502,-128.67 2502,-124.83 2505.83,-121 2509.67,-121 2509.67,-121 2993.33,-121 2993.33,-121 2997.17,-121 3001,-124.83 3001,-128.67 3001,-128.67 3001,-136.33 3001,-136.33 3001,-140.17 2997.17,-144 2993.33,-144"/>
<text text-anchor="middle" x="2751.5" y="-128.8" font-family="Arial" font-size="14.00" fill="#c6c5fe">components/elements/PermissionDeletionStatus/PermissionDeletionStatus.scss</text>
</g>
<!-- styles/_shared.scss -->
<g id="node16" class="node">
<title>styles/_shared.scss</title>
<path fill="none" stroke="#c6c5fe" d="M3492.33,-246C3492.33,-246 3373.67,-246 3373.67,-246 3369.83,-246 3366,-242.17 3366,-238.33 3366,-238.33 3366,-230.67 3366,-230.67 3366,-226.83 3369.83,-223 3373.67,-223 3373.67,-223 3492.33,-223 3492.33,-223 3496.17,-223 3500,-226.83 3500,-230.67 3500,-230.67 3500,-238.33 3500,-238.33 3500,-242.17 3496.17,-246 3492.33,-246"/>
<text text-anchor="middle" x="3433" y="-230.8" font-family="Arial" font-size="14.00" fill="#c6c5fe">styles/_shared.scss</text>
</g>
<!-- components/elements/PermissionDeletionStatus/PermissionDeletionStatus.scss&#45;&gt;styles/_shared.scss -->
<g id="edge11" class="edge">
<title>components/elements/PermissionDeletionStatus/PermissionDeletionStatus.scss&#45;&gt;styles/_shared.scss</title>
<path fill="none" stroke="#757575" d="M2848.08,-144.01C2962.85,-158.27 3161.03,-184.29 3330,-213.5 3342.65,-215.69 3356.13,-218.28 3369.01,-220.88"/>
<polygon fill="#757575" stroke="#757575" points="3368.68,-224.38 3379.18,-222.96 3370.09,-217.53 3368.68,-224.38"/>
</g>
<!-- styles/_mixins.scss -->
<g id="node50" class="node">
<title>styles/_mixins.scss</title>
<path fill="none" stroke="#c6c5fe" d="M3667.83,-267C3667.83,-267 3551.17,-267 3551.17,-267 3547.33,-267 3543.5,-263.17 3543.5,-259.33 3543.5,-259.33 3543.5,-251.67 3543.5,-251.67 3543.5,-247.83 3547.33,-244 3551.17,-244 3551.17,-244 3667.83,-244 3667.83,-244 3671.67,-244 3675.5,-247.83 3675.5,-251.67 3675.5,-251.67 3675.5,-259.33 3675.5,-259.33 3675.5,-263.17 3671.67,-267 3667.83,-267"/>
<text text-anchor="middle" x="3609.5" y="-251.8" font-family="Arial" font-size="14.00" fill="#c6c5fe">styles/_mixins.scss</text>
</g>
<!-- styles/_shared.scss&#45;&gt;styles/_mixins.scss -->
<g id="edge52" class="edge">
<title>styles/_shared.scss&#45;&gt;styles/_mixins.scss</title>
<path fill="none" stroke="#757575" d="M3500.47,-242.5C3511.24,-243.79 3522.45,-245.14 3533.4,-246.46"/>
<polygon fill="#757575" stroke="#757575" points="3533.02,-249.94 3543.37,-247.66 3533.86,-242.99 3533.02,-249.94"/>
</g>
<!-- styles/_variables.scss -->
<g id="node52" class="node">
<title>styles/_variables.scss</title>
<path fill="none" stroke="#cfffac" d="M3675.33,-226C3675.33,-226 3543.67,-226 3543.67,-226 3539.83,-226 3536,-222.17 3536,-218.33 3536,-218.33 3536,-210.67 3536,-210.67 3536,-206.83 3539.83,-203 3543.67,-203 3543.67,-203 3675.33,-203 3675.33,-203 3679.17,-203 3683,-206.83 3683,-210.67 3683,-210.67 3683,-218.33 3683,-218.33 3683,-222.17 3679.17,-226 3675.33,-226"/>
<text text-anchor="middle" x="3609.5" y="-210.8" font-family="Arial" font-size="14.00" fill="#cfffac">styles/_variables.scss</text>
</g>
<!-- styles/_shared.scss&#45;&gt;styles/_variables.scss -->
<g id="edge53" class="edge">
<title>styles/_shared.scss&#45;&gt;styles/_variables.scss</title>
<path fill="none" stroke="#757575" d="M3500.47,-226.88C3508.78,-225.93 3517.35,-224.95 3525.87,-223.97"/>
<polygon fill="#757575" stroke="#757575" points="3526.28,-227.45 3535.82,-222.83 3525.48,-220.49 3526.28,-227.45"/>
</g>
<!-- components/elements/PermissionDeletionStatus/PermissionDeletionStatus.tsx -->
<g id="node17" class="node">
<title>components/elements/PermissionDeletionStatus/PermissionDeletionStatus.tsx</title>
<path fill="none" stroke="#c6c5fe" d="M2111.33,-83C2111.33,-83 1637.67,-83 1637.67,-83 1633.83,-83 1630,-79.17 1630,-75.33 1630,-75.33 1630,-67.67 1630,-67.67 1630,-63.83 1633.83,-60 1637.67,-60 1637.67,-60 2111.33,-60 2111.33,-60 2115.17,-60 2119,-63.83 2119,-67.67 2119,-67.67 2119,-75.33 2119,-75.33 2119,-79.17 2115.17,-83 2111.33,-83"/>
<text text-anchor="middle" x="1874.5" y="-67.8" font-family="Arial" font-size="14.00" fill="#c6c5fe">components/elements/PermissionDeletionStatus/PermissionDeletionStatus.tsx</text>
</g>
<!-- components/elements/PermissionDeletionStatus/PermissionDeletionStatus.tsx&#45;&gt;api/endpoints.ts -->
<g id="edge12" class="edge">
<title>components/elements/PermissionDeletionStatus/PermissionDeletionStatus.tsx&#45;&gt;api/endpoints.ts</title>
<path fill="none" stroke="#757575" d="M1922.44,-59.96C1981.74,-48.4 2083.55,-39.01 2146,-91.5 2196.17,-133.67 2142.3,-182.35 2182,-234.5 2205.79,-265.75 2245.55,-286.71 2276.79,-299.3"/>
<polygon fill="#757575" stroke="#757575" points="2275.6,-302.59 2286.19,-302.94 2278.13,-296.07 2275.6,-302.59"/>
</g>
<!-- components/elements/PermissionDeletionStatus/PermissionDeletionStatus.tsx&#45;&gt;components/elements/PermissionDeletionStatus/PermissionDeletionStatus.scss -->
<g id="edge13" class="edge">
<title>components/elements/PermissionDeletionStatus/PermissionDeletionStatus.tsx&#45;&gt;components/elements/PermissionDeletionStatus/PermissionDeletionStatus.scss</title>
<path fill="none" stroke="#757575" d="M2087.9,-60C2200.56,-56.7 2341.14,-57.05 2466,-70.5 2549.45,-79.49 2644.32,-102.9 2700.7,-118.24"/>
<polygon fill="#757575" stroke="#757575" points="2699.86,-121.64 2710.43,-120.91 2701.71,-114.89 2699.86,-121.64"/>
</g>
<!-- icons/pending.svg -->
<g id="node18" class="node">
<title>icons/pending.svg</title>
<path fill="none" stroke="#cfffac" d="M2378.83,-23C2378.83,-23 2269.17,-23 2269.17,-23 2265.33,-23 2261.5,-19.17 2261.5,-15.33 2261.5,-15.33 2261.5,-7.67 2261.5,-7.67 2261.5,-3.83 2265.33,0 2269.17,0 2269.17,0 2378.83,0 2378.83,0 2382.67,0 2386.5,-3.83 2386.5,-7.67 2386.5,-7.67 2386.5,-15.33 2386.5,-15.33 2386.5,-19.17 2382.67,-23 2378.83,-23"/>
<text text-anchor="middle" x="2324" y="-7.8" font-family="Arial" font-size="14.00" fill="#cfffac">icons/pending.svg</text>
</g>
<!-- components/elements/PermissionDeletionStatus/PermissionDeletionStatus.tsx&#45;&gt;icons/pending.svg -->
<g id="edge14" class="edge">
<title>components/elements/PermissionDeletionStatus/PermissionDeletionStatus.tsx&#45;&gt;icons/pending.svg</title>
<path fill="none" stroke="#757575" d="M1961.52,-59.97C2045.59,-48.7 2172.11,-31.73 2251.02,-21.15"/>
<polygon fill="#757575" stroke="#757575" points="2251.9,-24.56 2261.35,-19.77 2250.97,-17.63 2251.9,-24.56"/>
</g>
<!-- icons/success&#45;small.svg -->
<g id="node19" class="node">
<title>icons/success&#45;small.svg</title>
<path fill="none" stroke="#cfffac" d="M2397.33,-144C2397.33,-144 2250.67,-144 2250.67,-144 2246.83,-144 2243,-140.17 2243,-136.33 2243,-136.33 2243,-128.67 2243,-128.67 2243,-124.83 2246.83,-121 2250.67,-121 2250.67,-121 2397.33,-121 2397.33,-121 2401.17,-121 2405,-124.83 2405,-128.67 2405,-128.67 2405,-136.33 2405,-136.33 2405,-140.17 2401.17,-144 2397.33,-144"/>
<text text-anchor="middle" x="2324" y="-128.8" font-family="Arial" font-size="14.00" fill="#cfffac">icons/success&#45;small.svg</text>
</g>
<!-- components/elements/PermissionDeletionStatus/PermissionDeletionStatus.tsx&#45;&gt;icons/success&#45;small.svg -->
<g id="edge15" class="edge">
<title>components/elements/PermissionDeletionStatus/PermissionDeletionStatus.tsx&#45;&gt;icons/success&#45;small.svg</title>
<path fill="none" stroke="#757575" d="M2112.63,-83.03C2124,-85.46 2135.17,-88.26 2146,-91.5 2163.54,-96.74 2164.67,-105.61 2182,-111.5 2198.06,-116.96 2215.63,-121 2232.75,-123.99"/>
<polygon fill="#757575" stroke="#757575" points="2232.33,-127.47 2242.76,-125.63 2233.46,-120.56 2232.33,-127.47"/>
</g>
<!-- icons/warning&#45;small.svg -->
<g id="node20" class="node">
<title>icons/warning&#45;small.svg</title>
<path fill="none" stroke="#cfffac" d="M2396.83,-103C2396.83,-103 2251.17,-103 2251.17,-103 2247.33,-103 2243.5,-99.17 2243.5,-95.33 2243.5,-95.33 2243.5,-87.67 2243.5,-87.67 2243.5,-83.83 2247.33,-80 2251.17,-80 2251.17,-80 2396.83,-80 2396.83,-80 2400.67,-80 2404.5,-83.83 2404.5,-87.67 2404.5,-87.67 2404.5,-95.33 2404.5,-95.33 2404.5,-99.17 2400.67,-103 2396.83,-103"/>
<text text-anchor="middle" x="2324" y="-87.8" font-family="Arial" font-size="14.00" fill="#cfffac">icons/warning&#45;small.svg</text>
</g>
<!-- components/elements/PermissionDeletionStatus/PermissionDeletionStatus.tsx&#45;&gt;icons/warning&#45;small.svg -->
<g id="edge16" class="edge">
<title>components/elements/PermissionDeletionStatus/PermissionDeletionStatus.tsx&#45;&gt;icons/warning&#45;small.svg</title>
<path fill="none" stroke="#757575" d="M2119.22,-82.39C2159.86,-84.21 2199.61,-85.99 2233.06,-87.48"/>
<polygon fill="#757575" stroke="#757575" points="2233.08,-90.98 2243.23,-87.93 2233.4,-83.99 2233.08,-90.98"/>
</g>
<!-- util/helpers.ts -->
<g id="node21" class="node">
<title>util/helpers.ts</title>
<path fill="none" stroke="#c6c5fe" d="M2364.33,-185C2364.33,-185 2283.67,-185 2283.67,-185 2279.83,-185 2276,-181.17 2276,-177.33 2276,-177.33 2276,-169.67 2276,-169.67 2276,-165.83 2279.83,-162 2283.67,-162 2283.67,-162 2364.33,-162 2364.33,-162 2368.17,-162 2372,-165.83 2372,-169.67 2372,-169.67 2372,-177.33 2372,-177.33 2372,-181.17 2368.17,-185 2364.33,-185"/>
<text text-anchor="middle" x="2324" y="-169.8" font-family="Arial" font-size="14.00" fill="#c6c5fe">util/helpers.ts</text>
</g>
<!-- components/elements/PermissionDeletionStatus/PermissionDeletionStatus.tsx&#45;&gt;util/helpers.ts -->
<g id="edge17" class="edge">
<title>components/elements/PermissionDeletionStatus/PermissionDeletionStatus.tsx&#45;&gt;util/helpers.ts</title>
<path fill="none" stroke="#757575" d="M1943.34,-59.99C2001.51,-53.77 2085.29,-53.8 2146,-91.5 2172.74,-108.11 2155.89,-134.91 2182,-152.5 2206.3,-168.87 2238.28,-174.59 2265.63,-176.01"/>
<polygon fill="#757575" stroke="#757575" points="2265.75,-179.51 2275.87,-176.36 2265.99,-172.52 2265.75,-179.51"/>
</g>
<!-- util/hooks.ts -->
<g id="node22" class="node">
<title>util/hooks.ts</title>
<path fill="none" stroke="#c6c5fe" d="M2360.33,-525C2360.33,-525 2287.67,-525 2287.67,-525 2283.83,-525 2280,-521.17 2280,-517.33 2280,-517.33 2280,-509.67 2280,-509.67 2280,-505.83 2283.83,-502 2287.67,-502 2287.67,-502 2360.33,-502 2360.33,-502 2364.17,-502 2368,-505.83 2368,-509.67 2368,-509.67 2368,-517.33 2368,-517.33 2368,-521.17 2364.17,-525 2360.33,-525"/>
<text text-anchor="middle" x="2324" y="-509.8" font-family="Arial" font-size="14.00" fill="#c6c5fe">util/hooks.ts</text>
</g>
<!-- components/elements/PermissionDeletionStatus/PermissionDeletionStatus.tsx&#45;&gt;util/hooks.ts -->
<g id="edge18" class="edge">
<title>components/elements/PermissionDeletionStatus/PermissionDeletionStatus.tsx&#45;&gt;util/hooks.ts</title>
<path fill="none" stroke="#757575" d="M1917.77,-59.92C1977.34,-46.43 2085.48,-32.83 2146,-91.5 2200.87,-144.69 2140.13,-369.57 2182,-433.5 2203.03,-465.61 2241.67,-486.22 2273.19,-498.46"/>
<polygon fill="#757575" stroke="#757575" points="2272.13,-501.8 2282.72,-501.99 2274.56,-495.23 2272.13,-501.8"/>
</g>
<!-- components/elements/Table/Table.tsx -->
<g id="node25" class="node">
<title>components/elements/Table/Table.tsx</title>
<path fill="none" stroke="#c6c5fe" d="M2865.33,-246C2865.33,-246 2637.67,-246 2637.67,-246 2633.83,-246 2630,-242.17 2630,-238.33 2630,-238.33 2630,-230.67 2630,-230.67 2630,-226.83 2633.83,-223 2637.67,-223 2637.67,-223 2865.33,-223 2865.33,-223 2869.17,-223 2873,-226.83 2873,-230.67 2873,-230.67 2873,-238.33 2873,-238.33 2873,-242.17 2869.17,-246 2865.33,-246"/>
<text text-anchor="middle" x="2751.5" y="-230.8" font-family="Arial" font-size="14.00" fill="#c6c5fe">components/elements/Table/Table.tsx</text>
</g>
<!-- util/helpers.ts&#45;&gt;components/elements/Table/Table.tsx -->
<g id="edge62" class="edge">
<title>util/helpers.ts&#45;&gt;components/elements/Table/Table.tsx</title>
<path fill="none" stroke="#757575" d="M2372,-180.14C2399.42,-184.02 2434.67,-189.02 2466,-193.5 2531.11,-202.81 2604.58,-213.4 2660.55,-221.49"/>
<polygon fill="#757575" stroke="#757575" points="2660.4,-225 2670.8,-222.97 2661.4,-218.07 2660.4,-225"/>
</g>
<!-- util/cancelable&#45;promise.ts -->
<g id="node63" class="node">
<title>util/cancelable&#45;promise.ts</title>
<path fill="none" stroke="#cfffac" d="M2828.83,-566C2828.83,-566 2674.17,-566 2674.17,-566 2670.33,-566 2666.5,-562.17 2666.5,-558.33 2666.5,-558.33 2666.5,-550.67 2666.5,-550.67 2666.5,-546.83 2670.33,-543 2674.17,-543 2674.17,-543 2828.83,-543 2828.83,-543 2832.67,-543 2836.5,-546.83 2836.5,-550.67 2836.5,-550.67 2836.5,-558.33 2836.5,-558.33 2836.5,-562.17 2832.67,-566 2828.83,-566"/>
<text text-anchor="middle" x="2751.5" y="-550.8" font-family="Arial" font-size="14.00" fill="#cfffac">util/cancelable&#45;promise.ts</text>
</g>
<!-- util/hooks.ts&#45;&gt;util/cancelable&#45;promise.ts -->
<g id="edge63" class="edge">
<title>util/hooks.ts&#45;&gt;util/cancelable&#45;promise.ts</title>
<path fill="none" stroke="#757575" d="M2368.14,-517.66C2435.28,-524.13 2566.35,-536.76 2656.14,-545.41"/>
<polygon fill="#757575" stroke="#757575" points="2656.05,-548.91 2666.34,-546.39 2656.72,-541.95 2656.05,-548.91"/>
</g>
<!-- components/elements/PermissionDeletionStatus/index.ts -->
<g id="node23" class="node">
<title>components/elements/PermissionDeletionStatus/index.ts</title>
<path fill="none" stroke="#c6c5fe" d="M1488.33,-83C1488.33,-83 1144.67,-83 1144.67,-83 1140.83,-83 1137,-79.17 1137,-75.33 1137,-75.33 1137,-67.67 1137,-67.67 1137,-63.83 1140.83,-60 1144.67,-60 1144.67,-60 1488.33,-60 1488.33,-60 1492.17,-60 1496,-63.83 1496,-67.67 1496,-67.67 1496,-75.33 1496,-75.33 1496,-79.17 1492.17,-83 1488.33,-83"/>
<text text-anchor="middle" x="1316.5" y="-67.8" font-family="Arial" font-size="14.00" fill="#c6c5fe">components/elements/PermissionDeletionStatus/index.ts</text>
</g>
<!-- components/elements/PermissionDeletionStatus/index.ts&#45;&gt;components/elements/PermissionDeletionStatus/PermissionDeletionStatus.tsx -->
<g id="edge19" class="edge">
<title>components/elements/PermissionDeletionStatus/index.ts&#45;&gt;components/elements/PermissionDeletionStatus/PermissionDeletionStatus.tsx</title>
<path fill="none" stroke="#757575" d="M1496.1,-71.5C1535.57,-71.5 1578.11,-71.5 1619.91,-71.5"/>
<polygon fill="#757575" stroke="#757575" points="1619.95,-75 1629.95,-71.5 1619.95,-68 1619.95,-75"/>
</g>
<!-- components/elements/Table/Table.scss -->
<g id="node24" class="node">
<title>components/elements/Table/Table.scss</title>
<path fill="none" stroke="#c6c5fe" d="M3302.33,-246C3302.33,-246 3064.67,-246 3064.67,-246 3060.83,-246 3057,-242.17 3057,-238.33 3057,-238.33 3057,-230.67 3057,-230.67 3057,-226.83 3060.83,-223 3064.67,-223 3064.67,-223 3302.33,-223 3302.33,-223 3306.17,-223 3310,-226.83 3310,-230.67 3310,-230.67 3310,-238.33 3310,-238.33 3310,-242.17 3306.17,-246 3302.33,-246"/>
<text text-anchor="middle" x="3183.5" y="-230.8" font-family="Arial" font-size="14.00" fill="#c6c5fe">components/elements/Table/Table.scss</text>
</g>
<!-- components/elements/Table/Table.scss&#45;&gt;styles/_shared.scss -->
<g id="edge20" class="edge">
<title>components/elements/Table/Table.scss&#45;&gt;styles/_shared.scss</title>
<path fill="none" stroke="#757575" d="M3310.06,-234.5C3325.56,-234.5 3341.03,-234.5 3355.48,-234.5"/>
<polygon fill="#757575" stroke="#757575" points="3355.81,-238 3365.81,-234.5 3355.81,-231 3355.81,-238"/>
</g>
<!-- components/elements/Table/Table.tsx&#45;&gt;components/elements/Table/Table.scss -->
<g id="edge21" class="edge">
<title>components/elements/Table/Table.tsx&#45;&gt;components/elements/Table/Table.scss</title>
<path fill="none" stroke="#757575" d="M2873.14,-234.5C2927.04,-234.5 2990.83,-234.5 3046.43,-234.5"/>
<polygon fill="#757575" stroke="#757575" points="3046.71,-238 3056.71,-234.5 3046.71,-231 3046.71,-238"/>
</g>
<!-- components/risks/RisksTableContainer/RisksTableContainer.tsx -->
<g id="node26" class="node">
<title>components/risks/RisksTableContainer/RisksTableContainer.tsx</title>
<path fill="none" stroke="#c6c5fe" d="M1507.83,-404C1507.83,-404 1125.17,-404 1125.17,-404 1121.33,-404 1117.5,-400.17 1117.5,-396.33 1117.5,-396.33 1117.5,-388.67 1117.5,-388.67 1117.5,-384.83 1121.33,-381 1125.17,-381 1125.17,-381 1507.83,-381 1507.83,-381 1511.67,-381 1515.5,-384.83 1515.5,-388.67 1515.5,-388.67 1515.5,-396.33 1515.5,-396.33 1515.5,-400.17 1511.67,-404 1507.83,-404"/>
<text text-anchor="middle" x="1316.5" y="-388.8" font-family="Arial" font-size="14.00" fill="#c6c5fe">components/risks/RisksTableContainer/RisksTableContainer.tsx</text>
</g>
<!-- components/risks/RisksTableContainer/RisksTableContainer.tsx&#45;&gt;api/endpoints.ts -->
<g id="edge22" class="edge">
<title>components/risks/RisksTableContainer/RisksTableContainer.tsx&#45;&gt;api/endpoints.ts</title>
<path fill="none" stroke="#757575" d="M1467.55,-380.99C1633.53,-368.24 1908.87,-347.04 2146,-328.5 2183.18,-325.59 2224.75,-322.31 2258.26,-319.65"/>
<polygon fill="#757575" stroke="#757575" points="2258.69,-323.13 2268.38,-318.85 2258.14,-316.15 2258.69,-323.13"/>
</g>
<!-- components/risks/RisksTableContainer/RisksTableContainer.tsx&#45;&gt;util/helpers.ts -->
<g id="edge27" class="edge">
<title>components/risks/RisksTableContainer/RisksTableContainer.tsx&#45;&gt;util/helpers.ts</title>
<path fill="none" stroke="#757575" d="M1393.31,-380.98C1448.75,-368.7 1521.86,-343.87 1567,-294.5 1605.43,-252.46 1557.42,-205.65 1603,-171.5 1655.4,-132.24 2104.33,-158.58 2265.61,-169.44"/>
<polygon fill="#757575" stroke="#757575" points="2265.59,-172.95 2275.81,-170.14 2266.07,-165.97 2265.59,-172.95"/>
</g>
<!-- components/risks/RisksTableContainer/RisksTableContainer.tsx&#45;&gt;components/elements/Table/Table.tsx -->
<g id="edge23" class="edge">
<title>components/risks/RisksTableContainer/RisksTableContainer.tsx&#45;&gt;components/elements/Table/Table.tsx</title>
<path fill="none" stroke="#757575" d="M1358.2,-404.03C1413.19,-418.95 1514.54,-444.16 1603,-453.5 1793.77,-473.65 2284.92,-496.82 2466,-433.5 2579.56,-393.79 2688.97,-295.05 2731.68,-253.45"/>
<polygon fill="#757575" stroke="#757575" points="2734.2,-255.89 2738.87,-246.38 2729.28,-250.9 2734.2,-255.89"/>
</g>
<!-- models/Person.ts -->
<g id="node27" class="node">
<title>models/Person.ts</title>
<path fill="none" stroke="#cfffac" d="M1927.83,-607C1927.83,-607 1821.17,-607 1821.17,-607 1817.33,-607 1813.5,-603.17 1813.5,-599.33 1813.5,-599.33 1813.5,-591.67 1813.5,-591.67 1813.5,-587.83 1817.33,-584 1821.17,-584 1821.17,-584 1927.83,-584 1927.83,-584 1931.67,-584 1935.5,-587.83 1935.5,-591.67 1935.5,-591.67 1935.5,-599.33 1935.5,-599.33 1935.5,-603.17 1931.67,-607 1927.83,-607"/>
<text text-anchor="middle" x="1874.5" y="-591.8" font-family="Arial" font-size="14.00" fill="#cfffac">models/Person.ts</text>
</g>
<!-- components/risks/RisksTableContainer/RisksTableContainer.tsx&#45;&gt;models/Person.ts -->
<g id="edge24" class="edge">
<title>components/risks/RisksTableContainer/RisksTableContainer.tsx&#45;&gt;models/Person.ts</title>
<path fill="none" stroke="#757575" d="M1344.45,-404.06C1392.27,-425.35 1493.82,-474.05 1567,-533.5 1585.82,-548.79 1581.31,-563.65 1603,-574.5 1665.49,-605.76 1746.39,-607.84 1803.38,-604.07"/>
<polygon fill="#757575" stroke="#757575" points="1803.66,-607.56 1813.37,-603.33 1803.14,-600.58 1803.66,-607.56"/>
</g>
<!-- models/RiskCatalog.ts -->
<g id="node28" class="node">
<title>models/RiskCatalog.ts</title>
<path fill="none" stroke="#c6c5fe" d="M1942.83,-525C1942.83,-525 1806.17,-525 1806.17,-525 1802.33,-525 1798.5,-521.17 1798.5,-517.33 1798.5,-517.33 1798.5,-509.67 1798.5,-509.67 1798.5,-505.83 1802.33,-502 1806.17,-502 1806.17,-502 1942.83,-502 1942.83,-502 1946.67,-502 1950.5,-505.83 1950.5,-509.67 1950.5,-509.67 1950.5,-517.33 1950.5,-517.33 1950.5,-521.17 1946.67,-525 1942.83,-525"/>
<text text-anchor="middle" x="1874.5" y="-509.8" font-family="Arial" font-size="14.00" fill="#c6c5fe">models/RiskCatalog.ts</text>
</g>
<!-- components/risks/RisksTableContainer/RisksTableContainer.tsx&#45;&gt;models/RiskCatalog.ts -->
<g id="edge25" class="edge">
<title>components/risks/RisksTableContainer/RisksTableContainer.tsx&#45;&gt;models/RiskCatalog.ts</title>
<path fill="none" stroke="#757575" d="M1345.28,-404.09C1395.67,-424.58 1505.9,-466.95 1603,-487.5 1664.25,-500.46 1734.68,-506.97 1788.32,-510.24"/>
<polygon fill="#757575" stroke="#757575" points="1788.29,-513.74 1798.47,-510.83 1788.69,-506.75 1788.29,-513.74"/>
</g>
<!-- util/analytics.ts -->
<g id="node29" class="node">
<title>util/analytics.ts</title>
<path fill="none" stroke="#c6c5fe" d="M1918.83,-404C1918.83,-404 1830.17,-404 1830.17,-404 1826.33,-404 1822.5,-400.17 1822.5,-396.33 1822.5,-396.33 1822.5,-388.67 1822.5,-388.67 1822.5,-384.83 1826.33,-381 1830.17,-381 1830.17,-381 1918.83,-381 1918.83,-381 1922.67,-381 1926.5,-384.83 1926.5,-388.67 1926.5,-388.67 1926.5,-396.33 1926.5,-396.33 1926.5,-400.17 1922.67,-404 1918.83,-404"/>
<text text-anchor="middle" x="1874.5" y="-388.8" font-family="Arial" font-size="14.00" fill="#c6c5fe">util/analytics.ts</text>
</g>
<!-- components/risks/RisksTableContainer/RisksTableContainer.tsx&#45;&gt;util/analytics.ts -->
<g id="edge26" class="edge">
<title>components/risks/RisksTableContainer/RisksTableContainer.tsx&#45;&gt;util/analytics.ts</title>
<path fill="none" stroke="#757575" d="M1515.87,-392.5C1620.36,-392.5 1741.23,-392.5 1812.3,-392.5"/>
<polygon fill="#757575" stroke="#757575" points="1812.42,-396 1822.42,-392.5 1812.42,-389 1812.42,-396"/>
</g>
<!-- util/ui&#45;strings.ts -->
<g id="node34" class="node">
<title>util/ui&#45;strings.ts</title>
<path fill="none" stroke="#cfffac" d="M2369.83,-566C2369.83,-566 2278.17,-566 2278.17,-566 2274.33,-566 2270.5,-562.17 2270.5,-558.33 2270.5,-558.33 2270.5,-550.67 2270.5,-550.67 2270.5,-546.83 2274.33,-543 2278.17,-543 2278.17,-543 2369.83,-543 2369.83,-543 2373.67,-543 2377.5,-546.83 2377.5,-550.67 2377.5,-550.67 2377.5,-558.33 2377.5,-558.33 2377.5,-562.17 2373.67,-566 2369.83,-566"/>
<text text-anchor="middle" x="2324" y="-550.8" font-family="Arial" font-size="14.00" fill="#cfffac">util/ui&#45;strings.ts</text>
</g>
<!-- models/RiskCatalog.ts&#45;&gt;util/ui&#45;strings.ts -->
<g id="edge48" class="edge">
<title>models/RiskCatalog.ts&#45;&gt;util/ui&#45;strings.ts</title>
<path fill="none" stroke="#757575" d="M1950.78,-518.17C2005.1,-521.76 2080.14,-527.16 2146,-533.5 2183.96,-537.15 2226.4,-542.16 2260.2,-546.36"/>
<polygon fill="#757575" stroke="#757575" points="2260.04,-549.87 2270.4,-547.64 2260.91,-542.92 2260.04,-549.87"/>
</g>
<!-- util/analytics.ts&#45;&gt;api/endpoints.ts -->
<g id="edge59" class="edge">
<title>util/analytics.ts&#45;&gt;api/endpoints.ts</title>
<path fill="none" stroke="#757575" d="M1926.51,-390.49C1981.2,-387.66 2070.38,-381.1 2146,-366.5 2193,-357.42 2245.44,-341.22 2280.96,-329.31"/>
<polygon fill="#757575" stroke="#757575" points="2282.16,-332.6 2290.51,-326.07 2279.92,-325.97 2282.16,-332.6"/>
</g>
<!-- util/analytics.ts&#45;&gt;util/helpers.ts -->
<g id="edge60" class="edge">
<title>util/analytics.ts&#45;&gt;util/helpers.ts</title>
<path fill="none" stroke="#757575" d="M1926.56,-387.09C1986.77,-378.09 2086.2,-354.61 2146,-294.5 2179.61,-260.72 2145.08,-223.64 2182,-193.5 2205.11,-174.63 2237.77,-169.11 2265.83,-168.54"/>
<polygon fill="#757575" stroke="#757575" points="2265.94,-172.04 2275.94,-168.54 2265.94,-165.04 2265.94,-172.04"/>
</g>
<!-- util/storage.ts -->
<g id="node66" class="node">
<title>util/storage.ts</title>
<path fill="none" stroke="#cfffac" d="M2364.83,-425C2364.83,-425 2283.17,-425 2283.17,-425 2279.33,-425 2275.5,-421.17 2275.5,-417.33 2275.5,-417.33 2275.5,-409.67 2275.5,-409.67 2275.5,-405.83 2279.33,-402 2283.17,-402 2283.17,-402 2364.83,-402 2364.83,-402 2368.67,-402 2372.5,-405.83 2372.5,-409.67 2372.5,-409.67 2372.5,-417.33 2372.5,-417.33 2372.5,-421.17 2368.67,-425 2364.83,-425"/>
<text text-anchor="middle" x="2324" y="-409.8" font-family="Arial" font-size="14.00" fill="#cfffac">util/storage.ts</text>
</g>
<!-- util/analytics.ts&#45;&gt;util/storage.ts -->
<g id="edge61" class="edge">
<title>util/analytics.ts&#45;&gt;util/storage.ts</title>
<path fill="none" stroke="#757575" d="M1926.83,-394.91C2010.86,-398.85 2177.2,-406.66 2265.23,-410.79"/>
<polygon fill="#757575" stroke="#757575" points="2265.16,-414.29 2275.31,-411.26 2265.49,-407.3 2265.16,-414.29"/>
</g>
<!-- components/risks/RisksTableContainerFilteredByOwner/RisksTableContainerFilteredByOwner.ts -->
<g id="node30" class="node">
<title>components/risks/RisksTableContainerFilteredByOwner/RisksTableContainerFilteredByOwner.ts</title>
<path fill="none" stroke="#c6c5fe" d="M1022.33,-365C1022.33,-365 444.67,-365 444.67,-365 440.83,-365 437,-361.17 437,-357.33 437,-357.33 437,-349.67 437,-349.67 437,-345.83 440.83,-342 444.67,-342 444.67,-342 1022.33,-342 1022.33,-342 1026.17,-342 1030,-345.83 1030,-349.67 1030,-349.67 1030,-357.33 1030,-357.33 1030,-361.17 1026.17,-365 1022.33,-365"/>
<text text-anchor="middle" x="733.5" y="-349.8" font-family="Arial" font-size="14.00" fill="#c6c5fe">components/risks/RisksTableContainerFilteredByOwner/RisksTableContainerFilteredByOwner.ts</text>
</g>
<!-- components/risks/RisksTableContainerFilteredByOwner/RisksTableContainerFilteredByOwner.ts&#45;&gt;api/endpoints.ts -->
<g id="edge28" class="edge">
<title>components/risks/RisksTableContainerFilteredByOwner/RisksTableContainerFilteredByOwner.ts&#45;&gt;api/endpoints.ts</title>
<path fill="none" stroke="#757575" d="M1030.44,-344.3C1198.36,-339.25 1412.43,-333.1 1603,-328.5 1844.62,-322.67 2131.9,-317.66 2258.09,-315.56"/>
<polygon fill="#757575" stroke="#757575" points="2258.41,-319.05 2268.35,-315.39 2258.29,-312.06 2258.41,-319.05"/>
</g>
<!-- components/risks/RisksTableContainerFilteredByOwner/RisksTableContainerFilteredByOwner.ts&#45;&gt;components/risks/RisksTableContainer/RisksTableContainer.tsx -->
<g id="edge29" class="edge">
<title>components/risks/RisksTableContainerFilteredByOwner/RisksTableContainerFilteredByOwner.ts&#45;&gt;components/risks/RisksTableContainer/RisksTableContainer.tsx</title>
<path fill="none" stroke="#757575" d="M906.07,-365.02C977.75,-369.83 1061.1,-375.42 1133.82,-380.3"/>
<polygon fill="#757575" stroke="#757575" points="1133.8,-383.81 1144.01,-380.99 1134.27,-376.83 1133.8,-383.81"/>
</g>
<!-- components/risks/RisksTableContainerFilteredByOwner/index.ts -->
<g id="node31" class="node">
<title>components/risks/RisksTableContainerFilteredByOwner/index.ts</title>
<path fill="none" stroke="#c6c5fe" d="M393.33,-365C393.33,-365 7.67,-365 7.67,-365 3.83,-365 0,-361.17 0,-357.33 0,-357.33 0,-349.67 0,-349.67 0,-345.83 3.83,-342 7.67,-342 7.67,-342 393.33,-342 393.33,-342 397.17,-342 401,-345.83 401,-349.67 401,-349.67 401,-357.33 401,-357.33 401,-361.17 397.17,-365 393.33,-365"/>
<text text-anchor="middle" x="200.5" y="-349.8" font-family="Arial" font-size="14.00" fill="#c6c5fe">components/risks/RisksTableContainerFilteredByOwner/index.ts</text>
</g>
<!-- components/risks/RisksTableContainerFilteredByOwner/index.ts&#45;&gt;components/risks/RisksTableContainerFilteredByOwner/RisksTableContainerFilteredByOwner.ts -->
<g id="edge30" class="edge">
<title>components/risks/RisksTableContainerFilteredByOwner/index.ts&#45;&gt;components/risks/RisksTableContainerFilteredByOwner/RisksTableContainerFilteredByOwner.ts</title>
<path fill="none" stroke="#757575" d="M401.11,-353.5C409.57,-353.5 418.12,-353.5 426.73,-353.5"/>
<polygon fill="#757575" stroke="#757575" points="426.86,-357 436.86,-353.5 426.86,-350 426.86,-357"/>
</g>
<!-- components/slack&#45;settings/SlackSettings.scss -->
<g id="node32" class="node">
<title>components/slack&#45;settings/SlackSettings.scss</title>
<path fill="none" stroke="#c6c5fe" d="M3322.33,-467C3322.33,-467 3044.67,-467 3044.67,-467 3040.83,-467 3037,-463.17 3037,-459.33 3037,-459.33 3037,-451.67 3037,-451.67 3037,-447.83 3040.83,-444 3044.67,-444 3044.67,-444 3322.33,-444 3322.33,-444 3326.17,-444 3330,-447.83 3330,-451.67 3330,-451.67 3330,-459.33 3330,-459.33 3330,-463.17 3326.17,-467 3322.33,-467"/>
<text text-anchor="middle" x="3183.5" y="-451.8" font-family="Arial" font-size="14.00" fill="#c6c5fe">components/slack&#45;settings/SlackSettings.scss</text>
</g>
<!-- components/slack&#45;settings/SlackSettings.scss&#45;&gt;styles/_shared.scss -->
<g id="edge31" class="edge">
<title>components/slack&#45;settings/SlackSettings.scss&#45;&gt;styles/_shared.scss</title>
<path fill="none" stroke="#757575" d="M3197.46,-443.93C3237.88,-407.84 3361.89,-297.1 3411.33,-252.95"/>
<polygon fill="#757575" stroke="#757575" points="3413.74,-255.49 3418.87,-246.22 3409.08,-250.27 3413.74,-255.49"/>
</g>
<!-- components/slack&#45;settings/SlackSettings.tsx -->
<g id="node33" class="node">
<title>components/slack&#45;settings/SlackSettings.tsx</title>
<path fill="none" stroke="#c6c5fe" d="M2008.33,-566C2008.33,-566 1740.67,-566 1740.67,-566 1736.83,-566 1733,-562.17 1733,-558.33 1733,-558.33 1733,-550.67 1733,-550.67 1733,-546.83 1736.83,-543 1740.67,-543 1740.67,-543 2008.33,-543 2008.33,-543 2012.17,-543 2016,-546.83 2016,-550.67 2016,-550.67 2016,-558.33 2016,-558.33 2016,-562.17 2012.17,-566 2008.33,-566"/>
<text text-anchor="middle" x="1874.5" y="-550.8" font-family="Arial" font-size="14.00" fill="#c6c5fe">components/slack&#45;settings/SlackSettings.tsx</text>
</g>
<!-- components/slack&#45;settings/SlackSettings.tsx&#45;&gt;api/endpoints.ts -->
<g id="edge32" class="edge">
<title>components/slack&#45;settings/SlackSettings.tsx&#45;&gt;api/endpoints.ts</title>
<path fill="none" stroke="#757575" d="M1923.73,-566.04C1983.2,-577.2 2083.99,-585.64 2146,-533.5 2195.5,-491.88 2142.46,-443.68 2182,-392.5 2205.38,-362.24 2244,-342.05 2274.91,-329.81"/>
<polygon fill="#757575" stroke="#757575" points="2276.54,-332.94 2284.65,-326.11 2274.06,-326.39 2276.54,-332.94"/>
</g>
<!-- components/slack&#45;settings/SlackSettings.tsx&#45;&gt;util/hooks.ts -->
<g id="edge34" class="edge">
<title>components/slack&#45;settings/SlackSettings.tsx&#45;&gt;util/hooks.ts</title>
<path fill="none" stroke="#757575" d="M2016.32,-544.51C2058.09,-541.29 2103.92,-537.51 2146,-533.5 2187.61,-529.54 2234.62,-524.18 2269.73,-520.01"/>
<polygon fill="#757575" stroke="#757575" points="2270.25,-523.47 2279.76,-518.81 2269.42,-516.52 2270.25,-523.47"/>
</g>
<!-- components/slack&#45;settings/SlackSettings.tsx&#45;&gt;components/slack&#45;settings/SlackSettings.scss -->
<g id="edge33" class="edge">
<title>components/slack&#45;settings/SlackSettings.tsx&#45;&gt;components/slack&#45;settings/SlackSettings.scss</title>
<path fill="none" stroke="#757575" d="M2016.12,-544.7C2059.63,-546.87 2106.48,-554.82 2146,-574.5 2167.71,-585.31 2159.91,-605.5 2182,-615.5 2299.18,-668.55 2895.59,-610.42 3001,-574.5 3065.82,-552.41 3130.09,-501.7 3161.92,-474.15"/>
<polygon fill="#757575" stroke="#757575" points="3164.45,-476.58 3169.65,-467.35 3159.82,-471.32 3164.45,-476.58"/>
</g>
<!-- components/slack&#45;settings/SlackSettings.tsx&#45;&gt;util/ui&#45;strings.ts -->
<g id="edge35" class="edge">
<title>components/slack&#45;settings/SlackSettings.tsx&#45;&gt;util/ui&#45;strings.ts</title>
<path fill="none" stroke="#757575" d="M2016.17,-554.5C2097.98,-554.5 2197.05,-554.5 2260.06,-554.5"/>
<polygon fill="#757575" stroke="#757575" points="2260.23,-558 2270.23,-554.5 2260.23,-551 2260.23,-558"/>
</g>
<!-- components/slack&#45;settings/index.ts -->
<g id="node35" class="node">
<title>components/slack&#45;settings/index.ts</title>
<path fill="none" stroke="#c6c5fe" d="M1422.33,-566C1422.33,-566 1210.67,-566 1210.67,-566 1206.83,-566 1203,-562.17 1203,-558.33 1203,-558.33 1203,-550.67 1203,-550.67 1203,-546.83 1206.83,-543 1210.67,-543 1210.67,-543 1422.33,-543 1422.33,-543 1426.17,-543 1430,-546.83 1430,-550.67 1430,-550.67 1430,-558.33 1430,-558.33 1430,-562.17 1426.17,-566 1422.33,-566"/>
<text text-anchor="middle" x="1316.5" y="-550.8" font-family="Arial" font-size="14.00" fill="#c6c5fe">components/slack&#45;settings/index.ts</text>
</g>
<!-- components/slack&#45;settings/index.ts&#45;&gt;components/slack&#45;settings/SlackSettings.tsx -->
<g id="edge36" class="edge">
<title>components/slack&#45;settings/index.ts&#45;&gt;components/slack&#45;settings/SlackSettings.tsx</title>
<path fill="none" stroke="#757575" d="M1430.01,-554.5C1514.2,-554.5 1630.22,-554.5 1722.47,-554.5"/>
<polygon fill="#757575" stroke="#757575" points="1722.75,-558 1732.75,-554.5 1722.75,-551 1722.75,-558"/>
</g>
<!-- components/spotlight/SpotlightPeopleTableContainer/SpotlightPeopleTableContainer.tsx -->
<g id="node36" class="node">
<title>components/spotlight/SpotlightPeopleTableContainer/SpotlightPeopleTableContainer.tsx</title>
<path fill="none" stroke="#c6c5fe" d="M2138.33,-286C2138.33,-286 1610.67,-286 1610.67,-286 1606.83,-286 1603,-282.17 1603,-278.33 1603,-278.33 1603,-270.67 1603,-270.67 1603,-266.83 1606.83,-263 1610.67,-263 1610.67,-263 2138.33,-263 2138.33,-263 2142.17,-263 2146,-266.83 2146,-270.67 2146,-270.67 2146,-278.33 2146,-278.33 2146,-282.17 2142.17,-286 2138.33,-286"/>
<text text-anchor="middle" x="1874.5" y="-270.8" font-family="Arial" font-size="14.00" fill="#c6c5fe">components/spotlight/SpotlightPeopleTableContainer/SpotlightPeopleTableContainer.tsx</text>
</g>
<!-- components/spotlight/SpotlightPeopleTableContainer/SpotlightPeopleTableContainer.tsx&#45;&gt;api/endpoints.ts -->
<g id="edge37" class="edge">
<title>components/spotlight/SpotlightPeopleTableContainer/SpotlightPeopleTableContainer.tsx&#45;&gt;api/endpoints.ts</title>
<path fill="none" stroke="#757575" d="M2004.34,-286.02C2087.42,-293.44 2191.94,-302.79 2258.14,-308.7"/>
<polygon fill="#757575" stroke="#757575" points="2258.15,-312.22 2268.42,-309.62 2258.77,-305.24 2258.15,-312.22"/>
</g>
<!-- components/spotlight/SpotlightPeopleTableContainer/index.ts -->
<g id="node37" class="node">
<title>components/spotlight/SpotlightPeopleTableContainer/index.ts</title>
<path fill="none" stroke="#c6c5fe" d="M1500.83,-286C1500.83,-286 1132.17,-286 1132.17,-286 1128.33,-286 1124.5,-282.17 1124.5,-278.33 1124.5,-278.33 1124.5,-270.67 1124.5,-270.67 1124.5,-266.83 1128.33,-263 1132.17,-263 1132.17,-263 1500.83,-263 1500.83,-263 1504.67,-263 1508.5,-266.83 1508.5,-270.67 1508.5,-270.67 1508.5,-278.33 1508.5,-278.33 1508.5,-282.17 1504.67,-286 1500.83,-286"/>
<text text-anchor="middle" x="1316.5" y="-270.8" font-family="Arial" font-size="14.00" fill="#c6c5fe">components/spotlight/SpotlightPeopleTableContainer/index.ts</text>
</g>
<!-- components/spotlight/SpotlightPeopleTableContainer/index.ts&#45;&gt;components/spotlight/SpotlightPeopleTableContainer/SpotlightPeopleTableContainer.tsx -->
<g id="edge38" class="edge">
<title>components/spotlight/SpotlightPeopleTableContainer/index.ts&#45;&gt;components/spotlight/SpotlightPeopleTableContainer/SpotlightPeopleTableContainer.tsx</title>
<path fill="none" stroke="#757575" d="M1508.84,-274.5C1535.96,-274.5 1564.3,-274.5 1592.67,-274.5"/>
<polygon fill="#757575" stroke="#757575" points="1592.71,-278 1602.71,-274.5 1592.71,-271 1592.71,-278"/>
</g>
<!-- config.ts -->
<g id="node38" class="node">
<title>config.ts</title>
<path fill="none" stroke="#cfffac" d="M226.33,-914C226.33,-914 174.67,-914 174.67,-914 170.83,-914 167,-910.17 167,-906.33 167,-906.33 167,-898.67 167,-898.67 167,-894.83 170.83,-891 174.67,-891 174.67,-891 226.33,-891 226.33,-891 230.17,-891 234,-894.83 234,-898.67 234,-898.67 234,-906.33 234,-906.33 234,-910.17 230.17,-914 226.33,-914"/>
<text text-anchor="middle" x="200.5" y="-898.8" font-family="Arial" font-size="14.00" fill="#cfffac">config.ts</text>
</g>
<!-- configureApp.ts -->
<g id="node39" class="node">
<title>configureApp.ts</title>
<path fill="none" stroke="#c6c5fe" d="M1363.83,-245C1363.83,-245 1269.17,-245 1269.17,-245 1265.33,-245 1261.5,-241.17 1261.5,-237.33 1261.5,-237.33 1261.5,-229.67 1261.5,-229.67 1261.5,-225.83 1265.33,-222 1269.17,-222 1269.17,-222 1363.83,-222 1363.83,-222 1367.67,-222 1371.5,-225.83 1371.5,-229.67 1371.5,-229.67 1371.5,-237.33 1371.5,-237.33 1371.5,-241.17 1367.67,-245 1363.83,-245"/>
<text text-anchor="middle" x="1316.5" y="-229.8" font-family="Arial" font-size="14.00" fill="#c6c5fe">configureApp.ts</text>
</g>
<!-- configureApp.ts&#45;&gt;api/apiConfiguration.ts -->
<g id="edge39" class="edge">
<title>configureApp.ts&#45;&gt;api/apiConfiguration.ts</title>
<path fill="none" stroke="#757575" d="M1371.57,-233.5C1468.52,-233.5 1672.6,-233.5 1788.46,-233.5"/>
<polygon fill="#757575" stroke="#757575" points="1788.7,-237 1798.7,-233.5 1788.7,-230 1788.7,-237"/>
</g>
<!-- models/AnonymousPerson.ts -->
<g id="node41" class="node">
<title>models/AnonymousPerson.ts</title>
<path fill="none" stroke="#c6c5fe" d="M1405.83,-648C1405.83,-648 1227.17,-648 1227.17,-648 1223.33,-648 1219.5,-644.17 1219.5,-640.33 1219.5,-640.33 1219.5,-632.67 1219.5,-632.67 1219.5,-628.83 1223.33,-625 1227.17,-625 1227.17,-625 1405.83,-625 1405.83,-625 1409.67,-625 1413.5,-628.83 1413.5,-632.67 1413.5,-632.67 1413.5,-640.33 1413.5,-640.33 1413.5,-644.17 1409.67,-648 1405.83,-648"/>
<text text-anchor="middle" x="1316.5" y="-632.8" font-family="Arial" font-size="14.00" fill="#c6c5fe">models/AnonymousPerson.ts</text>
</g>
<!-- models/AnonymousPerson.ts&#45;&gt;models/Person.ts -->
<g id="edge46" class="edge">
<title>models/AnonymousPerson.ts&#45;&gt;models/Person.ts</title>
<path fill="none" stroke="#757575" d="M1413.71,-629.41C1524.63,-621.23 1704.3,-607.98 1803,-600.7"/>
<polygon fill="#757575" stroke="#757575" points="1803.45,-604.18 1813.17,-599.95 1802.93,-597.19 1803.45,-604.18"/>
</g>
<!-- models/ColumnSchema.ts -->
<g id="node42" class="node">
<title>models/ColumnSchema.ts</title>
<path fill="none" stroke="#c6c5fe" d="M2404.33,-226C2404.33,-226 2243.67,-226 2243.67,-226 2239.83,-226 2236,-222.17 2236,-218.33 2236,-218.33 2236,-210.67 2236,-210.67 2236,-206.83 2239.83,-203 2243.67,-203 2243.67,-203 2404.33,-203 2404.33,-203 2408.17,-203 2412,-206.83 2412,-210.67 2412,-210.67 2412,-218.33 2412,-218.33 2412,-222.17 2408.17,-226 2404.33,-226"/>
<text text-anchor="middle" x="2324" y="-210.8" font-family="Arial" font-size="14.00" fill="#c6c5fe">models/ColumnSchema.ts</text>
</g>
<!-- models/ColumnSchema.ts&#45;&gt;components/elements/Table/Table.tsx -->
<g id="edge47" class="edge">
<title>models/ColumnSchema.ts&#45;&gt;components/elements/Table/Table.tsx</title>
<path fill="none" stroke="#757575" d="M2412.13,-218.6C2471.8,-221.4 2552,-225.17 2619.35,-228.34"/>
<polygon fill="#757575" stroke="#757575" points="2619.46,-231.84 2629.61,-228.82 2619.79,-224.85 2619.46,-231.84"/>
</g>
<!-- models/ScopeCatalog.ts -->
<g id="node43" class="node">
<title>models/ScopeCatalog.ts</title>
<path fill="none" stroke="#cfffac" d="M274.83,-955C274.83,-955 126.17,-955 126.17,-955 122.33,-955 118.5,-951.17 118.5,-947.33 118.5,-947.33 118.5,-939.67 118.5,-939.67 118.5,-935.83 122.33,-932 126.17,-932 126.17,-932 274.83,-932 274.83,-932 278.67,-932 282.5,-935.83 282.5,-939.67 282.5,-939.67 282.5,-947.33 282.5,-947.33 282.5,-951.17 278.67,-955 274.83,-955"/>
<text text-anchor="middle" x="200.5" y="-939.8" font-family="Arial" font-size="14.00" fill="#cfffac">models/ScopeCatalog.ts</text>
</g>
<!-- models/UserContext.ts -->
<g id="node44" class="node">
<title>models/UserContext.ts</title>
<path fill="none" stroke="#cfffac" d="M269.83,-996C269.83,-996 131.17,-996 131.17,-996 127.33,-996 123.5,-992.17 123.5,-988.33 123.5,-988.33 123.5,-980.67 123.5,-980.67 123.5,-976.83 127.33,-973 131.17,-973 131.17,-973 269.83,-973 269.83,-973 273.67,-973 277.5,-976.83 277.5,-980.67 277.5,-980.67 277.5,-988.33 277.5,-988.33 277.5,-992.17 273.67,-996 269.83,-996"/>
<text text-anchor="middle" x="200.5" y="-980.8" font-family="Arial" font-size="14.00" fill="#cfffac">models/UserContext.ts</text>
</g>
<!-- models/Visibility.ts -->
<g id="node45" class="node">
<title>models/Visibility.ts</title>
<path fill="none" stroke="#c6c5fe" d="M1930.33,-124C1930.33,-124 1818.67,-124 1818.67,-124 1814.83,-124 1811,-120.17 1811,-116.33 1811,-116.33 1811,-108.67 1811,-108.67 1811,-104.83 1814.83,-101 1818.67,-101 1818.67,-101 1930.33,-101 1930.33,-101 1934.17,-101 1938,-104.83 1938,-108.67 1938,-108.67 1938,-116.33 1938,-116.33 1938,-120.17 1934.17,-124 1930.33,-124"/>
<text text-anchor="middle" x="1874.5" y="-108.8" font-family="Arial" font-size="14.00" fill="#c6c5fe">models/Visibility.ts</text>
</g>
<!-- models/Visibility.ts&#45;&gt;util/helpers.ts -->
<g id="edge49" class="edge">
<title>models/Visibility.ts&#45;&gt;util/helpers.ts</title>
<path fill="none" stroke="#757575" d="M1938.07,-113.65C1993.41,-115.82 2076,-121.86 2146,-138.5 2162.7,-142.47 2165.41,-148.1 2182,-152.5 2209.14,-159.7 2239.91,-164.64 2265.77,-167.92"/>
<polygon fill="#757575" stroke="#757575" points="2265.44,-171.4 2275.79,-169.13 2266.28,-164.45 2265.44,-171.4"/>
</g>
<!-- models/__tests__/Person.test.ts -->
<g id="node46" class="node">
<title>models/__tests__/Person.test.ts</title>
<path fill="none" stroke="#c6c5fe" d="M1413.33,-607C1413.33,-607 1219.67,-607 1219.67,-607 1215.83,-607 1212,-603.17 1212,-599.33 1212,-599.33 1212,-591.67 1212,-591.67 1212,-587.83 1215.83,-584 1219.67,-584 1219.67,-584 1413.33,-584 1413.33,-584 1417.17,-584 1421,-587.83 1421,-591.67 1421,-591.67 1421,-599.33 1421,-599.33 1421,-603.17 1417.17,-607 1413.33,-607"/>
<text text-anchor="middle" x="1316.5" y="-591.8" font-family="Arial" font-size="14.00" fill="#c6c5fe">models/__tests__/Person.test.ts</text>
</g>
<!-- models/__tests__/Person.test.ts&#45;&gt;models/Person.ts -->
<g id="edge50" class="edge">
<title>models/__tests__/Person.test.ts&#45;&gt;models/Person.ts</title>
<path fill="none" stroke="#757575" d="M1421.1,-595.5C1532.5,-595.5 1706.58,-595.5 1803.09,-595.5"/>
<polygon fill="#757575" stroke="#757575" points="1803.33,-599 1813.33,-595.5 1803.33,-592 1803.33,-599"/>
</g>
<!-- react&#45;app&#45;env.d.ts -->
<g id="node47" class="node">
<title>react&#45;app&#45;env.d.ts</title>
<path fill="none" stroke="#cfffac" d="M255.33,-1037C255.33,-1037 145.67,-1037 145.67,-1037 141.83,-1037 138,-1033.17 138,-1029.33 138,-1029.33 138,-1021.67 138,-1021.67 138,-1017.83 141.83,-1014 145.67,-1014 145.67,-1014 255.33,-1014 255.33,-1014 259.17,-1014 263,-1017.83 263,-1021.67 263,-1021.67 263,-1029.33 263,-1029.33 263,-1033.17 259.17,-1037 255.33,-1037"/>
<text text-anchor="middle" x="200.5" y="-1021.8" font-family="Arial" font-size="14.00" fill="#cfffac">react&#45;app&#45;env.d.ts</text>
</g>
<!-- react&#45;app.d.ts -->
<g id="node48" class="node">
<title>react&#45;app.d.ts</title>
<path fill="none" stroke="#cfffac" d="M242.33,-1078C242.33,-1078 158.67,-1078 158.67,-1078 154.83,-1078 151,-1074.17 151,-1070.33 151,-1070.33 151,-1062.67 151,-1062.67 151,-1058.83 154.83,-1055 158.67,-1055 158.67,-1055 242.33,-1055 242.33,-1055 246.17,-1055 250,-1058.83 250,-1062.67 250,-1062.67 250,-1070.33 250,-1070.33 250,-1074.17 246.17,-1078 242.33,-1078"/>
<text text-anchor="middle" x="200.5" y="-1062.8" font-family="Arial" font-size="14.00" fill="#cfffac">react&#45;app.d.ts</text>
</g>
<!-- setupTests.ts -->
<g id="node49" class="node">
<title>setupTests.ts</title>
<path fill="none" stroke="#cfffac" d="M240.33,-1119C240.33,-1119 160.67,-1119 160.67,-1119 156.83,-1119 153,-1115.17 153,-1111.33 153,-1111.33 153,-1103.67 153,-1103.67 153,-1099.83 156.83,-1096 160.67,-1096 160.67,-1096 240.33,-1096 240.33,-1096 244.17,-1096 248,-1099.83 248,-1103.67 248,-1103.67 248,-1111.33 248,-1111.33 248,-1115.17 244.17,-1119 240.33,-1119"/>
<text text-anchor="middle" x="200.5" y="-1103.8" font-family="Arial" font-size="14.00" fill="#cfffac">setupTests.ts</text>
</g>
<!-- styles/_skeleton.scss -->
<g id="node51" class="node">
<title>styles/_skeleton.scss</title>
<path fill="none" stroke="#cfffac" d="M3854.33,-267C3854.33,-267 3726.67,-267 3726.67,-267 3722.83,-267 3719,-263.17 3719,-259.33 3719,-259.33 3719,-251.67 3719,-251.67 3719,-247.83 3722.83,-244 3726.67,-244 3726.67,-244 3854.33,-244 3854.33,-244 3858.17,-244 3862,-247.83 3862,-251.67 3862,-251.67 3862,-259.33 3862,-259.33 3862,-263.17 3858.17,-267 3854.33,-267"/>
<text text-anchor="middle" x="3790.5" y="-251.8" font-family="Arial" font-size="14.00" fill="#cfffac">styles/_skeleton.scss</text>
</g>
<!-- styles/_mixins.scss&#45;&gt;styles/_skeleton.scss -->
<g id="edge51" class="edge">
<title>styles/_mixins.scss&#45;&gt;styles/_skeleton.scss</title>
<path fill="none" stroke="#757575" d="M3675.63,-255.5C3686.42,-255.5 3697.72,-255.5 3708.84,-255.5"/>
<polygon fill="#757575" stroke="#757575" points="3708.98,-259 3718.98,-255.5 3708.98,-252 3708.98,-259"/>
</g>
<!-- types/appSpotlightEvent.d.ts -->
<g id="node54" class="node">
<title>types/appSpotlightEvent.d.ts</title>
<path fill="none" stroke="#cfffac" d="M286.83,-1160C286.83,-1160 114.17,-1160 114.17,-1160 110.33,-1160 106.5,-1156.17 106.5,-1152.33 106.5,-1152.33 106.5,-1144.67 106.5,-1144.67 106.5,-1140.83 110.33,-1137 114.17,-1137 114.17,-1137 286.83,-1137 286.83,-1137 290.67,-1137 294.5,-1140.83 294.5,-1144.67 294.5,-1144.67 294.5,-1152.33 294.5,-1152.33 294.5,-1156.17 290.67,-1160 286.83,-1160"/>
<text text-anchor="middle" x="200.5" y="-1144.8" font-family="Arial" font-size="14.00" fill="#cfffac">types/appSpotlightEvent.d.ts</text>
</g>
<!-- types/custom.d.ts -->
<g id="node55" class="node">
<title>types/custom.d.ts</title>
<path fill="none" stroke="#cfffac" d="M253.83,-1201C253.83,-1201 147.17,-1201 147.17,-1201 143.33,-1201 139.5,-1197.17 139.5,-1193.33 139.5,-1193.33 139.5,-1185.67 139.5,-1185.67 139.5,-1181.83 143.33,-1178 147.17,-1178 147.17,-1178 253.83,-1178 253.83,-1178 257.67,-1178 261.5,-1181.83 261.5,-1185.67 261.5,-1185.67 261.5,-1193.33 261.5,-1193.33 261.5,-1197.17 257.67,-1201 253.83,-1201"/>
<text text-anchor="middle" x="200.5" y="-1185.8" font-family="Arial" font-size="14.00" fill="#cfffac">types/custom.d.ts</text>
</g>
<!-- types/file.d.ts -->
<g id="node56" class="node">
<title>types/file.d.ts</title>
<path fill="none" stroke="#cfffac" d="M240.33,-1242C240.33,-1242 160.67,-1242 160.67,-1242 156.83,-1242 153,-1238.17 153,-1234.33 153,-1234.33 153,-1226.67 153,-1226.67 153,-1222.83 156.83,-1219 160.67,-1219 160.67,-1219 240.33,-1219 240.33,-1219 244.17,-1219 248,-1222.83 248,-1226.67 248,-1226.67 248,-1234.33 248,-1234.33 248,-1238.17 244.17,-1242 240.33,-1242"/>
<text text-anchor="middle" x="200.5" y="-1226.8" font-family="Arial" font-size="14.00" fill="#cfffac">types/file.d.ts</text>
</g>
<!-- types/fileEvent.d.ts -->
<g id="node57" class="node">
<title>types/fileEvent.d.ts</title>
<path fill="none" stroke="#cfffac" d="M257.83,-1283C257.83,-1283 143.17,-1283 143.17,-1283 139.33,-1283 135.5,-1279.17 135.5,-1275.33 135.5,-1275.33 135.5,-1267.67 135.5,-1267.67 135.5,-1263.83 139.33,-1260 143.17,-1260 143.17,-1260 257.83,-1260 257.83,-1260 261.67,-1260 265.5,-1263.83 265.5,-1267.67 265.5,-1267.67 265.5,-1275.33 265.5,-1275.33 265.5,-1279.17 261.67,-1283 257.83,-1283"/>
<text text-anchor="middle" x="200.5" y="-1267.8" font-family="Arial" font-size="14.00" fill="#cfffac">types/fileEvent.d.ts</text>
</g>
<!-- types/risk.d.ts -->
<g id="node58" class="node">
<title>types/risk.d.ts</title>
<path fill="none" stroke="#cfffac" d="M242.33,-1324C242.33,-1324 158.67,-1324 158.67,-1324 154.83,-1324 151,-1320.17 151,-1316.33 151,-1316.33 151,-1308.67 151,-1308.67 151,-1304.83 154.83,-1301 158.67,-1301 158.67,-1301 242.33,-1301 242.33,-1301 246.17,-1301 250,-1304.83 250,-1308.67 250,-1308.67 250,-1316.33 250,-1316.33 250,-1320.17 246.17,-1324 242.33,-1324"/>
<text text-anchor="middle" x="200.5" y="-1308.8" font-family="Arial" font-size="14.00" fill="#cfffac">types/risk.d.ts</text>
</g>
<!-- types/spotlightEvent.d.ts -->
<g id="node59" class="node">
<title>types/spotlightEvent.d.ts</title>
<path fill="none" stroke="#cfffac" d="M274.33,-1365C274.33,-1365 126.67,-1365 126.67,-1365 122.83,-1365 119,-1361.17 119,-1357.33 119,-1357.33 119,-1349.67 119,-1349.67 119,-1345.83 122.83,-1342 126.67,-1342 126.67,-1342 274.33,-1342 274.33,-1342 278.17,-1342 282,-1345.83 282,-1349.67 282,-1349.67 282,-1357.33 282,-1357.33 282,-1361.17 278.17,-1365 274.33,-1365"/>
<text text-anchor="middle" x="200.5" y="-1349.8" font-family="Arial" font-size="14.00" fill="#cfffac">types/spotlightEvent.d.ts</text>
</g>
<!-- types/table.d.ts -->
<g id="node60" class="node">
<title>types/table.d.ts</title>
<path fill="none" stroke="#cfffac" d="M246.33,-1406C246.33,-1406 154.67,-1406 154.67,-1406 150.83,-1406 147,-1402.17 147,-1398.33 147,-1398.33 147,-1390.67 147,-1390.67 147,-1386.83 150.83,-1383 154.67,-1383 154.67,-1383 246.33,-1383 246.33,-1383 250.17,-1383 254,-1386.83 254,-1390.67 254,-1390.67 254,-1398.33 254,-1398.33 254,-1402.17 250.17,-1406 246.33,-1406"/>
<text text-anchor="middle" x="200.5" y="-1390.8" font-family="Arial" font-size="14.00" fill="#cfffac">types/table.d.ts</text>
</g>
<!-- util/LocalStorage.ts -->
<g id="node61" class="node">
<title>util/LocalStorage.ts</title>
<path fill="none" stroke="#cfffac" d="M258.33,-1447C258.33,-1447 142.67,-1447 142.67,-1447 138.83,-1447 135,-1443.17 135,-1439.33 135,-1439.33 135,-1431.67 135,-1431.67 135,-1427.83 138.83,-1424 142.67,-1424 142.67,-1424 258.33,-1424 258.33,-1424 262.17,-1424 266,-1427.83 266,-1431.67 266,-1431.67 266,-1439.33 266,-1439.33 266,-1443.17 262.17,-1447 258.33,-1447"/>
<text text-anchor="middle" x="200.5" y="-1431.8" font-family="Arial" font-size="14.00" fill="#cfffac">util/LocalStorage.ts</text>
</g>
<!-- util/__tests__/cancelable&#45;promise&#45;test.test.ts -->
<g id="node62" class="node">
<title>util/__tests__/cancelable&#45;promise&#45;test.test.ts</title>
<path fill="none" stroke="#c6c5fe" d="M2458.33,-607C2458.33,-607 2189.67,-607 2189.67,-607 2185.83,-607 2182,-603.17 2182,-599.33 2182,-599.33 2182,-591.67 2182,-591.67 2182,-587.83 2185.83,-584 2189.67,-584 2189.67,-584 2458.33,-584 2458.33,-584 2462.17,-584 2466,-587.83 2466,-591.67 2466,-591.67 2466,-599.33 2466,-599.33 2466,-603.17 2462.17,-607 2458.33,-607"/>
<text text-anchor="middle" x="2324" y="-591.8" font-family="Arial" font-size="14.00" fill="#c6c5fe">util/__tests__/cancelable&#45;promise&#45;test.test.ts</text>
</g>
<!-- util/__tests__/cancelable&#45;promise&#45;test.test.ts&#45;&gt;util/cancelable&#45;promise.ts -->
<g id="edge55" class="edge">
<title>util/__tests__/cancelable&#45;promise&#45;test.test.ts&#45;&gt;util/cancelable&#45;promise.ts</title>
<path fill="none" stroke="#757575" d="M2444.37,-584C2511.32,-577.55 2593.66,-569.61 2656.08,-563.6"/>
<polygon fill="#757575" stroke="#757575" points="2656.69,-567.06 2666.31,-562.61 2656.02,-560.09 2656.69,-567.06"/>
</g>
<!-- util/__tests__/helpers.test.ts -->
<g id="node64" class="node">
<title>util/__tests__/helpers.test.ts</title>
<path fill="none" stroke="#c6c5fe" d="M1958.83,-204C1958.83,-204 1790.17,-204 1790.17,-204 1786.33,-204 1782.5,-200.17 1782.5,-196.33 1782.5,-196.33 1782.5,-188.67 1782.5,-188.67 1782.5,-184.83 1786.33,-181 1790.17,-181 1790.17,-181 1958.83,-181 1958.83,-181 1962.67,-181 1966.5,-184.83 1966.5,-188.67 1966.5,-188.67 1966.5,-196.33 1966.5,-196.33 1966.5,-200.17 1962.67,-204 1958.83,-204"/>
<text text-anchor="middle" x="1874.5" y="-188.8" font-family="Arial" font-size="14.00" fill="#c6c5fe">util/__tests__/helpers.test.ts</text>
</g>
<!-- util/__tests__/helpers.test.ts&#45;&gt;util/helpers.ts -->
<g id="edge57" class="edge">
<title>util/__tests__/helpers.test.ts&#45;&gt;util/helpers.ts</title>
<path fill="none" stroke="#757575" d="M1966.6,-188.63C2056.05,-184.83 2189.77,-179.16 2265.42,-175.94"/>
<polygon fill="#757575" stroke="#757575" points="2265.86,-179.43 2275.7,-175.51 2265.56,-172.44 2265.86,-179.43"/>
</g>
<!-- util/__tests__/helpers.test.ts&#45;&gt;components/elements/Table/Table.tsx -->
<g id="edge56" class="edge">
<title>util/__tests__/helpers.test.ts&#45;&gt;components/elements/Table/Table.tsx</title>
<path fill="none" stroke="#757575" d="M1966.78,-188.65C2020.2,-188.99 2088.28,-193.94 2146,-212.5 2163.85,-218.24 2163.95,-229.42 2182,-234.5 2351.98,-282.33 2562.05,-263.3 2673.14,-247.51"/>
<polygon fill="#757575" stroke="#757575" points="2673.86,-250.94 2683.25,-246.04 2672.85,-244.01 2673.86,-250.94"/>
</g>
<!-- util/__tests__/storage.test.ts -->
<g id="node65" class="node">
<title>util/__tests__/storage.test.ts</title>
<path fill="none" stroke="#c6c5fe" d="M1959.33,-445C1959.33,-445 1789.67,-445 1789.67,-445 1785.83,-445 1782,-441.17 1782,-437.33 1782,-437.33 1782,-429.67 1782,-429.67 1782,-425.83 1785.83,-422 1789.67,-422 1789.67,-422 1959.33,-422 1959.33,-422 1963.17,-422 1967,-425.83 1967,-429.67 1967,-429.67 1967,-437.33 1967,-437.33 1967,-441.17 1963.17,-445 1959.33,-445"/>
<text text-anchor="middle" x="1874.5" y="-429.8" font-family="Arial" font-size="14.00" fill="#c6c5fe">util/__tests__/storage.test.ts</text>
</g>
<!-- util/__tests__/storage.test.ts&#45;&gt;util/storage.ts -->
<g id="edge58" class="edge">
<title>util/__tests__/storage.test.ts&#45;&gt;util/storage.ts</title>
<path fill="none" stroke="#757575" d="M1967.14,-429.4C2056.4,-425.42 2189.37,-419.47 2264.95,-416.09"/>
<polygon fill="#757575" stroke="#757575" points="2265.39,-419.58 2275.22,-415.64 2265.08,-412.59 2265.39,-419.58"/>
</g>
</g>
</svg>
