<svg width="150" height="43" xmlns="http://www.w3.org/2000/svg"><g fill="none" fill-rule="evenodd"><g transform="translate(-14 12)"><rect fill="#FBF2D5" x="14" width="25" height="15" rx="4"/><text font-family="Courier" font-size="11" fill="#8F959E"><tspan x="16.598" y="11">int</tspan></text></g><g transform="translate(49)"><rect fill="#FBF2D5" x="65" width="22" height="15" rx="2"/><text font-family="Courier" font-size="11" fill="#8F959E"><tspan x=".593" y="10">Number or int</tspan></text></g><g transform="translate(49 28)"><rect fill="#FBF2D5" x="1" width="20" height="15" rx="2"/><text font-family="Courier" font-size="11" fill="#8F959E"><tspan x="1.492" y="10">Internal Reivew</tspan></text></g><path d="M29.512 21.137a3.48 3.48 0 0 0 3.48-3.48v-3.88a7.36 7.36 0 0 1 7.36-7.359H43.8" stroke="#FFC600" stroke-width=".5" stroke-linecap="round" stroke-linejoin="round"/><path d="M29.512 21.418a3.48 3.48 0 0 1 3.48 3.48v3.88a7.36 7.36 0 0 0 7.36 7.359H43.8" stroke="#E1E2E5" stroke-width=".5" stroke-linecap="round" stroke-linejoin="round" stroke-dasharray="2"/><g fill="#F3868E"><path d="M35.098 28.027l-.59-.59-1.472 1.474-1.474-1.473-.589.589 1.473 1.473-1.473 1.473.59.59 1.473-1.474 1.473 1.473.589-.589-1.473-1.473z"/></g></g></svg>