<?xml version="1.0" standalone="no"?>
<!DOCTYPE svg PUBLIC "-//W3C//DTD SVG 20010904//EN"
 "http://www.w3.org/TR/2001/REC-SVG-20010904/DTD/svg10.dtd">
<svg version="1.0" xmlns="http://www.w3.org/2000/svg"
 width="1198.000000pt" height="1198.000000pt" viewBox="0 0 1198.000000 1198.000000"
 preserveAspectRatio="xMidYMid meet">
<metadata>
Created by potrace 1.11, written by Peter Selinger 2001-2013
</metadata>
<g transform="translate(0.000000,1198.000000) scale(0.100000,-0.100000)"
fill="#000000" stroke="none">
<path d="M5790 11974 c-422 -19 -781 -66 -1145 -150 -2331 -534 -4134 -2431
-4549 -4784 -63 -358 -89 -663 -89 -1050 0 -387 26 -692 89 -1050 396 -2245
2059 -4085 4254 -4709 541 -153 1059 -224 1640 -224 387 0 692 26 1050 89
2462 434 4410 2382 4844 4844 63 358 89 663 89 1050 0 387 -26 692 -89 1050
-377 2138 -1904 3916 -3966 4619 -470 160 -976 263 -1478 300 -151 12 -535 20
-650 15z m355 -1689 c110 -28 219 -89 298 -168 69 -69 95 -112 607 -1000 294
-511 546 -956 561 -990 80 -189 88 -388 21 -581 -21 -60 -218 -411 -764 -1357
-537 -929 -744 -1296 -762 -1351 -51 -151 -55 -285 -15 -436 24 -89 24 -90
157 -324 l107 -188 865 0 865 0 138 240 c175 304 181 319 181 480 0 110 -3
133 -25 190 -14 36 -148 278 -299 539 -150 260 -273 479 -273 485 1 17 559
978 569 978 5 0 245 -409 534 -910 609 -1054 601 -1038 601 -1278 1 -132 -24
-249 -75 -359 -19 -40 -202 -364 -407 -719 l-372 -646 -1437 0 -1436 0 -378
655 c-208 361 -389 682 -402 714 -49 122 -59 177 -59 341 0 176 12 232 74 365
21 44 357 634 748 1310 391 677 722 1253 736 1281 77 153 76 357 -3 513 -57
113 -272 477 -298 504 -15 16 -47 41 -72 55 -40 24 -55 27 -135 27 -103 0
-145 -17 -206 -82 -35 -37 -2043 -3504 -2094 -3616 -91 -198 -92 -465 -1 -662
13 -28 195 -349 404 -712 210 -363 384 -667 388 -676 6 -16 -33 -17 -567 -15
l-573 3 -412 714 c-318 551 -417 731 -435 790 -21 66 -24 96 -24 231 0 148 2
159 31 240 23 63 404 732 1489 2610 801 1389 1473 2546 1492 2572 74 103 226
202 355 233 74 18 231 18 303 0z"/>
</g>
</svg>
