<?xml version="1.0" encoding="UTF-8"?>
<svg width="30px" height="30px" viewBox="0 0 30 30" version="1.1" xmlns="http://www.w3.org/2000/svg" xmlns:xlink="http://www.w3.org/1999/xlink">
    <!-- Generator: Sketch 63.1 (92452) - https://sketch.com -->
    <title>email</title>
    <desc>Created with Sketch.</desc>
    <g id="Landing" stroke="none" stroke-width="1" fill="none" fill-rule="evenodd" fill-opacity="0.7">
        <g id="Landing-page_top-funnel-v5" transform="translate(-738.000000, -1958.000000)" fill="#0177FF" fill-rule="nonzero">
            <g id="Group-36" transform="translate(0.000000, 651.000000)">
                <g id="Group-16" transform="translate(0.000000, 95.000000)">
                    <g id="Group-45">
                        <g id="footer" transform="translate(0.000000, 1124.000000)">
                            <g id="Group-10" transform="translate(257.000000, 50.000000)">
                                <g id="Group-9" transform="translate(430.000000, 0.000000)">
                                    <g id="email" transform="translate(51.000000, 38.000000)">
                                        <path d="M26.4,0 L3.6,0 C1.6117749,0 0,1.6117749 0,3.6 L0,26.4 C0,28.3882251 1.6117749,30 3.6,30 L26.4,30 C28.3882251,30 30,28.3882251 30,26.4 L30,3.6 C30,1.6117749 28.3882251,0 26.4,0 Z M7.4055,9 C7.65171586,8.68124771 8.03172802,8.4945 8.4345,8.4945 L21.5505,8.4945 C21.953272,8.4945 22.3332841,8.68124771 22.5795,9 C22.6865737,9.13809398 22.6667987,9.33584327 22.5345,9.45 C20.373,11.2785 16.5825,14.4975 15.468,15.5025 C15.3411045,15.62814 15.1710169,15.7005747 14.9925,15.705 C14.8134486,15.6996535 14.6430464,15.6267772 14.5155,15.501 C13.4025,14.496 9.612,11.277 7.4505,9.45 C7.31820126,9.33584327 7.29842633,9.13809398 7.4055,9 Z M22.8555,19.5885 C22.8546722,20.3127879 22.2672884,20.8995 21.543,20.8995 L8.4345,20.8995 C7.71055338,20.8986755 7.12365238,20.3124452 7.12199118,19.5885 L7.12199118,11.3385 C7.12106129,11.2103191 7.19510269,11.0934104 7.31138468,11.0394685 C7.42766667,10.9855265 7.56474242,11.0045003 7.662,11.088 C9.612,12.738 13.0515,15.6645 14.0775,16.5885 C14.5900522,17.0761194 15.3949478,17.0761194 15.9075,16.5885 C16.869,15.7215 19.9275,13.119 22.323,11.088 C22.4199656,11.0045522 22.5570888,10.9863083 22.6725,11.0415 C22.789539,11.095258 22.8641212,11.2127103 22.8630125,11.3415 L22.8555,19.5885 Z" id="Shape"></path>
                                    </g>
                                </g>
                            </g>
                        </g>
                    </g>
                </g>
            </g>
        </g>
    </g>
</svg>