<?xml version="1.0" encoding="UTF-8"?>
<svg width="30px" height="30px" viewBox="0 0 30 30" version="1.1" xmlns="http://www.w3.org/2000/svg" xmlns:xlink="http://www.w3.org/1999/xlink">
    <!-- Generator: Sketch 63.1 (92452) - https://sketch.com -->
    <title>twitter</title>
    <desc>Created with Sketch.</desc>
    <g id="Landing" stroke="none" stroke-width="1" fill="none" fill-rule="evenodd">
        <g id="Landing-page_top-funnel-v5" transform="translate(-687.000000, -1958.000000)" fill="#1DA1F3" fill-rule="nonzero">
            <g id="Group-36" transform="translate(0.000000, 651.000000)">
                <g id="Group-16" transform="translate(0.000000, 95.000000)">
                    <g id="Group-45">
                        <g id="footer" transform="translate(0.000000, 1124.000000)">
                            <g id="Group-10" transform="translate(257.000000, 50.000000)">
                                <g id="Group-9" transform="translate(430.000000, 0.000000)">
                                    <g id="twitter" transform="translate(0.000000, 38.000000)">
                                        <path d="M26.4,0 L3.6,0 C1.6117749,0 0,1.6117749 0,3.6 L0,26.4 C0,28.3882251 1.6117749,30 3.6,30 L26.4,30 C28.3882251,30 30,28.3882251 30,26.4 L30,3.6 C30,1.6117749 28.3882251,0 26.4,0 Z M20.823,12 C20.823,12.1275 20.835,12.255 20.835,12.3885 C20.835,16.3635 17.8065,20.9505457 12.27,20.9505457 C10.6329139,20.9558723 9.02930991,20.4869822 7.653,19.6005 C7.89236942,19.6297481 8.13335369,19.6437763 8.3745,19.6425 C9.72658467,19.6436353 11.0400364,19.1915586 12.105,18.3585 C10.8171567,18.3253839 9.69012779,17.483869 9.2925,16.2585 C9.4800596,16.2964442 9.67116499,16.314046 9.8625,16.311 C10.1286999,16.312682 10.3939679,16.2793974 10.6515,16.212 C9.25211174,15.9220789 8.24672712,14.6920937 8.241,13.263 L8.241,13.23 C8.65782441,13.4604721 9.12387838,13.587531 9.6,13.6005 C8.2766499,12.7155074 7.87165574,10.9528623 8.676,9.579 C10.2013881,11.4633685 12.457087,12.6089471 14.8785,12.729 C14.8295886,12.5033242 14.8059431,12.2729062 14.808,12.042 C14.8082467,10.8071817 15.5628846,9.6978577 16.7113145,9.24411204 C17.8597444,8.79036639 19.1688172,9.08431648 20.013,9.9855 C20.6856736,9.85223226 21.3308402,9.60572992 21.921,9.2565 C21.6977875,9.95387477 21.227232,10.545537 20.598,10.92 C21.1957614,10.8452198 21.779707,10.6850894 22.332,10.4445 C21.9270665,11.0498758 21.4158112,11.5768855 20.823,12 Z" id="Shape"></path>
                                    </g>
                                </g>
                            </g>
                        </g>
                    </g>
                </g>
            </g>
        </g>
    </g>
</svg>