<svg width="41" height="41" viewBox="0 0 41 41" fill="none" xmlns="http://www.w3.org/2000/svg">
<circle cx="20.5" cy="20.5" r="20.5" fill="#c2c5cb"/>
<g clip-path="url(#clip0)">
<path d="M20.5017 8C16.9302 8 14.0107 10.9195 14.0107 14.4909C14.0107 18.0624 16.9302 20.9819 20.5017 20.9819C24.0731 20.9819 26.9926 18.0624 26.9926 14.4909C26.9926 10.9195 24.0731 8 20.5017 8Z" fill="white"/>
<path d="M31.6412 26.169C31.4712 25.7438 31.2444 25.347 30.9893 24.9785C29.6855 23.0511 27.673 21.7756 25.4055 21.4638C25.122 21.4355 24.8102 21.4921 24.5835 21.6622C23.393 22.5409 21.9758 22.9944 20.5018 22.9944C19.0278 22.9944 17.6106 22.5409 16.4202 21.6622C16.1934 21.4921 15.8816 21.4071 15.5982 21.4638C13.3306 21.7756 11.2898 23.0511 10.0143 24.9785C9.75918 25.347 9.5324 25.7722 9.36237 26.169C9.27736 26.3391 9.30568 26.5375 9.39069 26.7076C9.61747 27.1044 9.90089 27.5013 10.156 27.8414C10.5528 28.3799 10.978 28.8618 11.4599 29.3153C11.8567 29.7121 12.3102 30.0806 12.7637 30.4491C15.0029 32.1214 17.6957 33.0001 20.4735 33.0001C23.2513 33.0001 25.944 32.1214 28.1832 30.4491C28.6367 30.1089 29.0902 29.7121 29.4871 29.3153C29.9406 28.8618 30.3941 28.3799 30.791 27.8414C31.0744 27.4729 31.3296 27.1044 31.5563 26.7076C31.6979 26.5375 31.7263 26.339 31.6412 26.169Z" fill="white"/>
</g>
<defs>
<clipPath id="clip0">
<rect width="25" height="25" fill="white" transform="translate(8 8)"/>
</clipPath>
</defs>
</svg>
