<svg width="80px" height="80px" viewBox="0 0 80 80" version="1.1" xmlns="http://www.w3.org/2000/svg" xmlns:xlink="http://www.w3.org/1999/xlink">
    <!-- Generator: Sketch 61.2 (89653) - https://sketch.com -->
    <title>Shape</title>
    <desc>Created with Sketch.</desc>
    <g id="For-approval" stroke="none" stroke-width="1" fill="none" fill-rule="evenodd">
        <g id="App-spotlight-v9.1" transform="translate(-214.000000, -155.000000)" fill="#BFDDFF" fill-rule="nonzero">
            <g id="Group-33" transform="translate(132.000000, 122.000000)">
                <g id="icon-placeholder" transform="translate(82.000000, 33.000000)">
                    <path d="M18.2608696,0 C8.17391304,0 0,8.17391304 0,18.2608696 L0,61.9021739 C0,71.8152174 8.17391304,80 18.2608696,80 L61.9021739,80 C71.8152174,80 80,71.826087 80,61.7391304 L80,18.2608696 C80,8.17391304 71.826087,0 61.7391304,0 L18.2608696,0 Z M40,6.95652174 C48.5217391,6.95652174 56.1521739,10.2717391 62.0652174,15.4891304 L68.3695652,9.23913043 C69.0652174,8.54347826 70.0652174,8.54347826 70.7608696,9.23913043 C71.4565217,9.93478261 71.4565217,10.9347826 70.7608696,11.6304348 L64.5108696,17.9347826 C69.7282609,23.8478261 73.0434783,31.4782609 73.0434783,40 C73.0434783,48.5217391 69.7282609,56.1521739 64.5108696,62.0652174 L70.7608696,68.3695652 C71.4565217,69.0652174 71.4565217,70.0652174 70.7608696,70.7608696 C70.4130435,71.1086957 70.0869565,71.3043478 69.5652174,71.3043478 C69.0434783,71.3043478 68.7173913,71.1086957 68.3695652,70.7608696 L62.0652174,64.5108696 C56.1521739,69.7282609 48.5217391,73.0434783 40,73.0434783 C31.4782609,73.0434783 23.8478261,69.7282609 17.9347826,64.5108696 L11.6304348,70.7608696 C11.2826087,71.1086957 10.9565217,71.3043478 10.4347826,71.3043478 C9.91304348,71.3043478 9.58695652,71.1086957 9.23913043,70.7608696 C8.54347826,70.0652174 8.54347826,69.0652174 9.23913043,68.3695652 L15.4891304,62.0652174 C10.2717391,56.1521739 6.95652174,48.5217391 6.95652174,40 C6.95652174,31.4782609 10.2717391,23.8478261 15.4891304,17.9347826 L9.23913043,11.6304348 C8.54347826,10.9347826 8.54347826,9.93478261 9.23913043,9.23913043 C9.93478261,8.54347826 10.9347826,8.54347826 11.6304348,9.23913043 L17.9347826,15.4891304 C23.8478261,10.2717391 31.4782609,6.95652174 40,6.95652174 Z M40,10.4347826 C32.5217391,10.4347826 25.5434783,13.2391304 20.326087,17.9347826 L29.0217391,26.6304348 C31.9782609,24.0217391 35.826087,22.6086957 40,22.6086957 C44.173913,22.6086957 48.0217391,24.0217391 50.9782609,26.6304348 L59.673913,17.9347826 C54.4565217,13.2391304 47.4782609,10.4347826 40,10.4347826 Z M17.9347826,20.326087 C13.2391304,25.5434783 10.4347826,32.5217391 10.4347826,40 C10.4347826,47.4782609 13.2391304,54.4565217 17.9347826,59.673913 L26.6304348,50.9782609 C24.0217391,48.0217391 22.6086957,44.173913 22.6086957,40 C22.6086957,35.826087 24.0217391,31.9782609 26.6304348,29.0217391 L17.9347826,20.326087 Z M62.0652174,20.326087 L53.3695652,29.0217391 C55.8043478,31.9782609 57.3913043,35.826087 57.3913043,40 C57.3913043,44.173913 55.9782609,48.0217391 53.3695652,50.9782609 L62.0652174,59.673913 C66.7608696,54.4565217 69.5652174,47.6521739 69.5652174,40 C69.5652174,32.3478261 66.7608696,25.5434783 62.0652174,20.326087 Z M40,26.0869565 C36.8695652,26.0869565 33.9021739,27.1086957 31.4673913,29.0217391 L40,37.5543478 L48.5326087,29.0217391 C46.0978261,27.1086957 43.1304348,26.0869565 40,26.0869565 Z M29.0217391,31.4673913 C27.1086957,33.9021739 26.0869565,36.8695652 26.0869565,40 C26.0869565,43.1304348 27.1086957,46.0978261 29.0217391,48.5326087 L37.5543478,40 L29.0217391,31.4673913 Z M50.9782609,31.4673913 L42.4456522,40 L50.9782609,48.5326087 C52.8913043,46.0978261 53.9130435,43.1304348 53.9130435,40 C53.9130435,36.8695652 52.8913043,33.9021739 50.9782609,31.4673913 Z M40,42.4456522 L31.4673913,50.9782609 C33.9021739,52.8913043 36.8695652,53.9130435 40,53.9130435 C43.1304348,53.9130435 46.0978261,52.8913043 48.5326087,50.9782609 L40,42.4456522 Z M29.0217391,53.3695652 L20.326087,62.0652174 C25.5434783,66.7608696 32.3478261,69.5652174 40,69.5652174 C47.6521739,69.5652174 54.4565217,66.7608696 59.673913,62.0652174 L50.9782609,53.3695652 C48.0217391,55.9782609 44.173913,57.3913043 40,57.3913043 C35.826087,57.3913043 31.9782609,55.9782609 29.0217391,53.3695652 Z" id="Shape"></path>
                </g>
            </g>
        </g>
    </g>
</svg>