<svg width="14" height="10" viewBox="0 0 14 10" fill="none" xmlns="http://www.w3.org/2000/svg">
<path d="M13.7709 4.44702L13.7702 4.44627L9.68797 0.383778C9.38215 0.0794421 8.8875 0.0805746 8.58309 0.386434C8.27871 0.692254 8.27988 1.1869 8.5857 1.49128L11.3265 4.21877H0.78125C0.349766 4.21877 0 4.56854 0 5.00002C0 5.43151 0.349766 5.78127 0.78125 5.78127H11.3264L8.58574 8.50877C8.27992 8.81315 8.27875 9.30779 8.58313 9.61361C8.88754 9.91951 9.38223 9.92057 9.68801 9.61627L13.7702 5.55377L13.7709 5.55303C14.0769 5.24764 14.0759 4.75139 13.7709 4.44702Z" fill="black"/>
</svg>
