<svg width="20" height="11" viewBox="0 0 20 11" fill="none" xmlns="http://www.w3.org/2000/svg">
<path d="M19.3659 9.35969C19.6098 9.70092 19.561 10.1397 19.2683 10.3834C18.9268 10.6271 18.439 10.5784 18.1951 10.2859L16.4878 8.09223L14.8293 10.2372C14.5854 10.5784 14.0976 10.5784 13.7561 10.3347C13.4146 10.0909 13.3659 9.65218 13.6098 9.31094L15.561 6.77602L13.6098 4.24111C13.3659 3.89987 13.4634 3.41239 13.7561 3.16864C14.0976 2.9249 14.5854 3.0224 14.8293 3.31489L16.4878 5.50856L18.1951 3.41239C18.439 3.07115 18.878 3.0224 19.2683 3.26614C19.6098 3.50988 19.6098 3.99737 19.3659 4.3386L17.4634 6.82477L19.3659 9.35969ZM10.4878 9.0672C9.21951 9.0672 8.19512 8.09223 8.19512 6.82477C8.19512 5.60606 9.21951 4.58235 10.4878 4.58235C11.7561 4.58235 12.7805 5.60606 12.7805 6.82477C12.7317 8.09223 11.7073 9.0672 10.4878 9.0672ZM3.7561 9.0672C2.4878 9.0672 1.46341 8.09223 1.46341 6.82477C1.46341 5.60606 2.4878 4.58235 3.7561 4.58235C5.02439 4.58235 6.04878 5.60606 6.04878 6.82477C6.04878 8.09223 5.02439 9.0672 3.7561 9.0672ZM10.4878 3.1199C9.07317 3.1199 7.80488 3.89987 7.17073 5.06983C6.53658 3.89987 5.26829 3.1199 3.80488 3.1199C2.92683 3.1199 2.14634 3.41239 1.51219 3.85112V0.731225C1.51219 0.341239 1.17073 0 0.780488 0C0.341463 0 0 0.341239 0 0.731225V6.87352C0.0487805 8.92095 1.70732 10.5296 3.7561 10.5296C5.21951 10.5296 6.4878 9.70092 7.12195 8.53096C7.7561 9.70092 9.02439 10.5296 10.439 10.5296C12.5366 10.5296 14.2439 8.8722 14.2439 6.77602C14.2927 4.77734 12.5854 3.1199 10.4878 3.1199Z" fill="#0071F7"/>
</svg>
