<svg width="18" height="18" viewBox="0 0 18 18" fill="none" xmlns="http://www.w3.org/2000/svg">
<g clip-path="url(#clip0)">
<path d="M17.591 9.2067C17.591 8.59491 17.5415 7.9798 17.436 7.37793H8.97192V10.8437H13.8189C13.6178 11.9614 12.9715 12.9502 12.0252 13.5786V15.8273H14.9169C16.615 14.2598 17.591 11.9449 17.591 9.2067Z" fill="#4285F4"/>
<path d="M8.97183 18C11.392 18 13.433 17.203 14.9201 15.8273L12.0284 13.5786C11.2239 14.1275 10.1852 14.4384 8.97513 14.4384C6.63407 14.4384 4.64912 12.8543 3.93691 10.7246H0.952881V13.0428C2.47622 16.082 5.57894 18 8.97183 18Z" fill="#34A853"/>
<path d="M3.93358 10.7246C3.55769 9.60684 3.55769 8.39648 3.93358 7.27872V4.96051H0.952849C-0.319895 7.50359 -0.319895 10.4997 0.952849 13.0428L3.93358 10.7246Z" fill="#FBBC04"/>
<path d="M8.97183 3.56167C10.2512 3.54182 11.4876 4.02465 12.4142 4.91092L14.9762 2.34138C13.3539 0.813549 11.2008 -0.0264293 8.97183 2.66655e-05C5.57894 2.66655e-05 2.47622 1.91809 0.952881 4.96053L3.93361 7.27873C4.64252 5.14572 6.63077 3.56167 8.97183 3.56167Z" fill="#EA4335"/>
</g>
<defs>
<clipPath id="clip0">
<rect width="17.5909" height="18" fill="white"/>
</clipPath>
</defs>
</svg>
