<svg xmlns="http://www.w3.org/2000/svg" width="10" height="10" fill="none" viewBox="0 0 10 10">
    <path fill="#0C6CDA" d="M8.8 0H1.2C.537 0 0 .537 0 1.2v7.6C0 9.463.537 10 1.2 10h7.6c.663 0 1.2-.537 1.2-1.2V1.2C10 .537 9.463 0 8.8 0zM5.833 7.508H2.1c-.22 0-.4-.18-.4-.4 0-.221.18-.4.4-.4h3.735c.221 0 .4.179.4.4 0 .22-.179.4-.4.4h-.002zM8.3 5c0 .22-.18.4-.4.4H2.1c-.22 0-.4-.18-.4-.4 0-.22.18-.4.4-.4h5.8c.22 0 .4.18.4.4zm-.4-1.71H2.1c-.22 0-.4-.18-.4-.4 0-.22.18-.4.4-.4h5.8c.22 0 .4.18.4.4 0 .22-.18.4-.4.4z"/>
</svg>
