<svg xmlns="http://www.w3.org/2000/svg" width="10" height="10" fill="none" viewBox="0 0 10 10">
    <path fill="#FEB30C" d="M2.597 6.903h4.8V3.321h-4.8v3.582zm3.217-2.017c0-.193.157-.35.35-.35.194 0 .35.157.35.35v1.335c0 .193-.156.35-.35.35-.193 0-.35-.157-.35-.35V4.886zM4.65 4.19c0-.194.157-.35.35-.35.193 0 .35.156.35.35V6.22c0 .193-.157.35-.35.35-.193 0-.35-.157-.35-.35V4.19zm-.817 1.15c.193 0 .35.156.35.35v.532c0 .193-.157.35-.35.35-.193 0-.35-.157-.35-.35V5.69c0-.193.155-.35.347-.35h.003z"/>
    <path fill="#FEB30C" d="M8.8 0H1.2C.537 0 0 .537 0 1.2v7.6C0 9.463.537 10 1.2 10h7.6c.663 0 1.2-.537 1.2-1.2V1.2C10 .537 9.463 0 8.8 0zm.045 2.92c0 .221-.18.4-.4.4H8.2v3.983c0 .22-.18.4-.4.4H2.2c-.22 0-.4-.18-.4-.4V3.321h-.248c-.22 0-.4-.18-.4-.4 0-.221.18-.4.4-.4h6.89c.221 0 .4.179.4.4h.003z"/>
</svg>
