<svg xmlns="http://www.w3.org/2000/svg" width="10" height="10" fill="none" viewBox="0 0 10 10">
    <path fill="#E94848" d="M2.426 4.392h-.549v.464h.548c.086.004.167-.04.21-.112.044-.074.044-.165 0-.238-.043-.073-.124-.117-.21-.113zM4.986 4.39h-.497v1.214h.494c.328-.009.59-.277.591-.605.001-.329-.26-.598-.588-.608z"/>
    <path fill="#E94848" d="M8.8 0H1.2C.537 0 0 .537 0 1.2v7.6C0 9.463.537 10 1.2 10h7.6c.663 0 1.2-.537 1.2-1.2V1.2C10 .537 9.463 0 8.8 0zM2.426 5.555h-.549v.365c0 .193-.156.35-.35.35-.193 0-.35-.157-.35-.35V4.039c0-.193.157-.35.35-.35l.042.003h.857c.338-.008.653.168.825.46.17.29.17.652 0 .943-.172.292-.487.467-.825.46zM5.05 6.3h-.908c-.187 0-.341-.147-.35-.333-.003-.017-.004-.034-.004-.05V4.038c0-.193.157-.35.35-.35h.897c.702.023 1.26.596 1.263 1.298.004.702-.547 1.282-1.248 1.313zm3.766-2.226c0 .193-.157.35-.35.35h-.91V4.9h.515c.193 0 .35.157.35.35 0 .193-.157.35-.35.35h-.515v.356c0 .193-.157.35-.35.35-.193 0-.35-.157-.35-.35v-.647c-.004-.02-.006-.039-.006-.059 0-.02.002-.04.006-.06V4.136c-.004-.02-.006-.04-.006-.06 0-.166.117-.31.28-.343.025-.006.05-.009.075-.009h1.262c.193 0 .35.157.35.35h-.001z"/>
</svg>
