<svg xmlns="http://www.w3.org/2000/svg" width="10" height="10" fill="none" viewBox="0 0 10 10">
    <path fill="#6B9A15" d="M7.497 4.698h-2.1v.6h2.1v-.6zM7.498 3.297h-5v.6h5v-.6zM4.598 4.698h-2.1v.6h2.1v-.6zM4.598 6.098h-2.1v.6h2.1v-.6zM7.497 6.098h-2.1v.6h2.1v-.6z"/>
    <path fill="#6B9A15" d="M8.8 0H1.2C.537 0 0 .537 0 1.2v7.6C0 9.463.537 10 1.2 10h7.6c.663 0 1.2-.537 1.2-1.2V1.2C10 .537 9.463 0 8.8 0zm-.5 2.9V7.1c0 .22-.18.4-.4.4H2.1c-.22 0-.4-.18-.4-.4V2.9c0-.22.18-.4.4-.4h5.8c.22 0 .4.18.4.4z"/>
</svg>
