<svg width="18" height="18" viewBox="0 0 18 18" fill="none" xmlns="http://www.w3.org/2000/svg">
<path d="M6.16666 0.5H1.91667C1.13534 0.5 0.5 1.13534 0.5 1.91667V6.16666C0.5 6.94796 1.13534 7.58333 1.91667 7.58333H6.16666C6.94796 7.58333 7.58333 6.94799 7.58333 6.16666V1.91667C7.5833 1.13534 6.94796 0.5 6.16666 0.5Z" fill="white"/>
<path d="M16.0833 0.5H11.8334C11.052 0.5 10.4167 1.13534 10.4167 1.91667V6.16666C10.4167 6.94796 11.052 7.58333 11.8334 7.58333H16.0833C16.8646 7.58333 17.5 6.94799 17.5 6.16666V1.91667C17.5 1.13534 16.8646 0.5 16.0833 0.5Z" fill="white"/>
<path d="M6.16666 10.4167H1.91667C1.13534 10.4167 0.5 11.052 0.5 11.8333V16.0833C0.5 16.8646 1.13534 17.5 1.91667 17.5H6.16666C6.94796 17.5 7.58333 16.8647 7.58333 16.0833V11.8333C7.5833 11.052 6.94796 10.4167 6.16666 10.4167Z" fill="white"/>
<path d="M16.2765 13.572H15.1174V12.4129C15.1174 12.1993 14.9446 12.0265 14.731 12.0265H13.9583C13.7448 12.0265 13.572 12.1993 13.572 12.4129V13.572H12.4129C12.1993 13.572 12.0265 13.7448 12.0265 13.9583V14.7311C12.0265 14.9446 12.1993 15.1174 12.4129 15.1174H13.572V16.2765C13.572 16.4901 13.7448 16.6629 13.9583 16.6629H14.731C14.9446 16.6629 15.1174 16.4901 15.1174 16.2765V15.1174H16.2765C16.4901 15.1174 16.6629 14.9446 16.6629 14.7311V13.9583C16.6629 13.7448 16.4901 13.572 16.2765 13.572Z" fill="white"/>
</svg>
