<?xml version="1.0" encoding="UTF-8"?>
<svg width="55px" height="50px" viewBox="0 0 55 50" version="1.1" xmlns="http://www.w3.org/2000/svg" xmlns:xlink="http://www.w3.org/1999/xlink">
    <!-- Generator: Sketch 63.1 (92452) - https://sketch.com -->
    <title>exclamation-triangle</title>
    <desc>Created with Sketch.</desc>
    <defs>
        <linearGradient x1="100%" y1="89.3131346%" x2="0%" y2="37.2289087%" id="linearGradient-1">
            <stop stop-color="#F69D95" offset="0%"></stop>
            <stop stop-color="#F6E8AF" offset="100%"></stop>
        </linearGradient>
    </defs>
    <g id="For-approval" stroke="none" stroke-width="1" fill="none" fill-rule="evenodd">
        <g id="Edit-permissions-5-error" transform="translate(-673.000000, -286.000000)" fill="url(#linearGradient-1)" fill-rule="nonzero">
            <g id="Group-12" transform="translate(370.000000, 212.000000)">
                <g id="exclamation-triangle" transform="translate(303.000000, 74.000000)">
                    <path d="M28.6,40.8876783 L28.6,36.2835375 C28.6,36.0573692 28.5505208,35.8675494 28.4515625,35.714078 C28.3526042,35.5606066 28.2354167,35.483871 28.1,35.483871 L25.1,35.483871 C24.9645833,35.483871 24.8473958,35.5606066 24.7484375,35.714078 C24.6494792,35.8675494 24.6,36.0573692 24.6,36.2835375 L24.6,40.8876783 C24.6,41.1138467 24.6494792,41.3036665 24.7484375,41.4571379 C24.8473958,41.6106092 24.9645833,41.6873449 25.1,41.6873449 L28.1,41.6873449 C28.2354167,41.6873449 28.3526042,41.6106092 28.4515625,41.4571379 C28.5505208,41.3036665 28.6,41.1138467 28.6,40.8876783 Z M27.016129,0 C27.7188788,0 28.3714322,0.180288462 28.9737892,0.540865385 C29.5761462,0.901442308 30.0479925,1.39222756 30.3893281,2.01322115 L53.5198363,44.3209135 C54.2225861,45.5829327 54.2025076,46.8449519 53.4596006,48.1069712 C53.118265,48.6879006 52.6514383,49.1486378 52.0591206,49.4891827 C51.4668029,49.8297276 50.8293085,50 50.1466372,50 L3.88562085,50 C3.2029496,50 2.56545513,49.8297276 1.97313743,49.4891827 C1.38081972,49.1486378 0.913993062,48.6879006 0.572657438,48.1069712 C-0.170249509,46.8449519 -0.190328075,45.5829327 0.51242174,44.3209135 L23.6429299,2.01322115 C23.9842655,1.39222756 24.4561119,0.901442308 25.0584688,0.540865385 C25.6608258,0.180288462 26.3133792,0 27.016129,0 Z M27.3663309,5.38837841 C26.879378,5.12781124 26.2733932,5.31133319 26.012826,5.79828616 L26.012826,5.79828616 L5.28855673,44.5282014 C5.21089622,44.6733349 5.17026308,44.8353948 5.17026308,45 C5.17026308,45.5522847 5.61797833,46 6.17026308,46 L6.17026308,46 L47.6188016,46 C47.7834068,46 47.9454667,45.9593669 48.0906002,45.8817063 C48.5775532,45.6211392 48.7610751,45.0151544 48.5005079,44.5282014 L48.5005079,44.5282014 L27.7762387,5.79828616 C27.6830722,5.62417488 27.5404422,5.48154487 27.3663309,5.38837841 Z M28.1277778,18.8585608 C28.2296296,18.8585608 28.3407407,18.9625174 28.4611111,19.1704308 C28.5537037,19.3027392 28.6,19.4823007 28.6,19.7091152 L28.6,19.7091152 L28.35,32.7225981 C28.3407407,32.9116102 28.2921296,33.0675452 28.2041667,33.190403 C28.1162037,33.3132609 28.0074074,33.3746898 27.8777778,33.3746898 L27.8777778,33.3746898 L25.3083333,33.3746898 C25.1787037,33.3746898 25.0675926,33.3132609 24.975,33.190403 C24.8824074,33.0675452 24.8361111,32.9116102 24.8361111,32.7225981 L24.8361111,32.7225981 L24.6,19.7658189 C24.6,19.5012019 24.6462963,19.3027392 24.7388889,19.1704308 C24.8592593,18.9625174 24.9703704,18.8585608 25.0722222,18.8585608 L25.0722222,18.8585608 Z" id="Shape"></path>
                </g>
            </g>
        </g>
    </g>
</svg>