<svg xmlns="http://www.w3.org/2000/svg" width="16" height="14" viewBox="0 0 16 14">
    <g fill="#90959d">
        <path d="M15.662 11.782L9.154.707C8.898.271 8.43 0 7.934 0c-.497 0-.965.271-1.221.707L.204 11.782c-.265.451-.272 1.016-.02 1.475.252.458.728.743 1.241.743h13.017c.513 0 .988-.285 1.24-.743.253-.459.245-1.024-.02-1.475zm-.879.953c-.07.127-.2.205-.341.205H1.425c-.141 0-.272-.078-.342-.205-.07-.126-.067-.281.006-.405L7.597 1.255c.07-.12.2-.195.336-.195.137 0 .266.075.336.195l6.509 11.075c.073.124.075.28.005.405z"/>
        <g>
            <path d="M.564 0C.247 0 0 .22 0 .608 0 1.795.108 3.5.108 4.686c0 .31.209.439.456.439.185 0 .448-.13.448-.439 0-1.186.108-2.891.108-4.078C1.12.22.865 0 .564 0zM.564 6.067c-.322 0-.564.254-.564.56 0 .298.242.56.564.56.3 0 .556-.262.556-.56 0-.306-.256-.56-.556-.56z" transform="translate(7.373 4.28)"/>
        </g>
    </g>
</svg>
